<?xml version="1.0" encoding="utf-8"?>
<!-- Generator: Adobe Illustrator 16.0.0, SVG Export Plug-In . SVG Version: 6.00 Build 0)  -->
<!DOCTYPE svg PUBLIC "-//W3C//DTD SVG 1.1//EN" "http://www.w3.org/Graphics/SVG/1.1/DTD/svg11.dtd">
<svg version="1.1" id="Layer_1" xmlns="http://www.w3.org/2000/svg" xmlns:xlink="http://www.w3.org/1999/xlink" x="0px" y="0px"
	 width="1600px" height="900px" viewBox="0 0 1600 900" enable-background="new 0 0 1600 900" xml:space="preserve">
<g>
	<g>
		<path fill="#284EB7" d="M1067.785,349.247c1.684,0,3.084,1.402,3.084,3.085v97.628c0,9.255,7.297,15.489,16.552,15.489h37.032
			c9.259,0,16.832-6.234,16.832-15.489v-97.628c0-1.683,1.406-3.085,3.089-3.085h21.317v99.588c0,22.725-18.511,40.96-41.238,40.96
			h-37.032c-22.726,0-40.96-18.235-40.96-40.96v-99.588H1067.785z"/>
	</g>
	<g>
		<path fill="#284EB7" d="M387.726,388.624v91.901c0,5.042-3.922,8.965-8.964,8.965h-3.087h-0.915h-11.408
			c0,0,0.281-91.901,0.281-93.582v-7.01c0-8.958-5.886-16.524-16.812-16.524h-55.758c-1.677,0-3.081-1.401-3.081-3.084v-19.892
			h58.839C369.514,349.399,387.726,363.127,387.726,388.624z"/>
	</g>
	<g>
		<path fill="#284EB7" d="M874.854,388.624v91.901c0,5.042-3.922,8.965-8.967,8.965h-3.084H850.47c0,0,0.281-91.901,0.281-93.582
			v-7.01c0-8.958-5.884-16.524-16.806-16.524h-55.758c-1.684,0-3.08-1.401-3.08-3.084v-19.892h58.838
			C856.64,349.399,874.854,363.127,874.854,388.624z"/>
	</g>
	<g>
		<path fill="#284EB7" d="M935.27,349.224h92.137v19.892c0,1.685-1.458,3.087-3.137,3.087h-89c-10.928,0-16.812,7.561-16.812,16.524
			v7.008c0,1.681,0.28,93.582,0.28,93.582h-12.327h-3.084c-5.048,0-8.966-3.92-8.966-8.965v-91.902
			C894.361,362.956,912.57,349.224,935.27,349.224z"/>
	</g>
	<g>
		<path fill="#3376D2" d="M432.348,465.843l-0.172,23.538l-68.824,0.109h-50.15c-22.698,0-40.91-18.212-40.91-40.907v-8.684
			c0-22.698,18.212-40.905,40.91-40.905h47.346c1.684,0,27.179-0.236,27.179-0.236v23.683l-24.093-0.361
			c-4.204-0.113-50.432,0.167-50.432,0.167c-9.246,0-16.535,7.284-16.535,16.527v10.369c0,9.242,7.289,16.53,16.535,16.53h47.629
			C362.51,465.673,432.348,465.843,432.348,465.843z"/>
	</g>
	<g>
		<path fill="#3376D2" d="M918.696,465.562l-0.039,23.929H850.47h-50.151c-22.693,0-40.904-18.212-40.904-40.907v-8.684
			c0-22.698,18.211-40.905,40.904-40.905h47.355c1.679,0,27.18-0.236,27.18-0.236v23.683l-24.103-0.361
			c-4.203-0.113-50.433,0.167-50.433,0.167c-9.247,0-16.525,7.284-16.525,16.527v10.369c0,9.242,7.278,16.53,16.525,16.53h47.634
			C849.633,465.673,918.696,465.562,918.696,465.562z"/>
	</g>
	<g>
		<path fill="#284EB7" d="M661.629,349.431l93.793-0.141l0.01,20.216c0,1.687-1.394,2.823-3.058,2.823l-90.699,0.021
			L661.629,349.431z"/>
	</g>
	<g>
		<path fill="#3376D2" d="M432.168,489.314l-15.637,0.066c-5.041,0-8.965-3.921-8.965-8.963V279.244h21.289
			c1.688,0,3.09,1.403,3.09,3.083L432.168,489.314z"/>
	</g>
	<g>
		<path fill="#284EB7" d="M1223.918,466.104h1.131h36.691c9.245,0,16.527-7.286,16.527-16.53v-60.517
			c0-9.249-7.282-16.534-16.527-16.534h-48.191l-47.88-0.174v-23.083h96.071c22.414,0,40.904,18.213,40.904,40.911v58.279
			c0,22.691-18.49,40.905-40.904,40.905h-32.222c-8.686,0-43.973,0.139-43.973,0.139l-0.174-23.506L1223.918,466.104z"/>
	</g>
	<g>
		<path fill="#3376D2" d="M1209.611,556.479c0,1.678-1.396,3.078-3.08,3.078h-21.291V358.389c0-5.043,3.927-9.122,8.965-9.122
			h15.315L1209.611,556.479z"/>
	</g>
	<g>
		<path fill="#284EB7" d="M407.459,372.765l0.042-23.507c0,0,35.575,0.141,44.257,0.141h32.224
			c22.417,0,40.908,18.216,40.908,40.902v58.282c0,22.695-18.491,40.907-40.908,40.907h-66.681c-5.043,0-9.82-3.923-9.82-8.965
			v-14.303l28.316,0.012h48.185c9.251,0,16.535-7.285,16.535-16.533v-60.513c0-9.248-7.284-16.539-16.535-16.539h-36.688h-1.133
			L407.459,372.765z"/>
	</g>
	<path fill="#C48B8B" d="M650.299,408.913"/>
	<g>
		<g>
			<path fill="#284EB7" d="M326.165,557.994h-3.023c-0.331,0-0.588-0.222-0.661-0.478l-2.47-7.112h-14.077l-2.47,7.112
				c-0.071,0.256-0.367,0.478-0.659,0.478h-3.025l8.993-25.607c0.442-1.218,1.583-2.064,2.91-2.064h4.387
				c0.183,0,0.366,0.11,0.441,0.257L326.165,557.994z M318.906,547.236l-4.793-13.746h-1.803c-0.297,0-0.555,0.184-0.663,0.479
				l-4.607,13.267H318.906z"/>
			<path fill="#284EB7" d="M326.371,558.142h-3.229c-0.376,0-0.704-0.241-0.804-0.586l-2.433-7.006h-13.866l-2.435,7.014
				c-0.093,0.322-0.446,0.578-0.8,0.578h-3.231l0.069-0.196l8.99-25.606c0.471-1.297,1.697-2.164,3.05-2.164h4.387
				c0.235,0,0.471,0.14,0.571,0.338L326.371,558.142z M305.829,550.257h14.286l2.502,7.213c0.057,0.191,0.253,0.378,0.524,0.378
				h2.815l-9.586-27.22c-0.042-0.081-0.179-0.159-0.302-0.159h-4.387c-1.231,0-2.345,0.791-2.773,1.968l-8.922,25.411h2.817
				c0.219,0,0.465-0.172,0.521-0.371L305.829,550.257z M319.11,547.383h-12.276l4.673-13.462c0.133-0.353,0.447-0.577,0.804-0.577
				h1.908L319.11,547.383z M307.246,547.09h11.453l-4.688-13.453h-1.7c-0.236,0-0.438,0.149-0.527,0.386L307.246,547.09z"/>
		</g>
		<g>
			<path fill="#284EB7" d="M346.168,554.826c1.548,0,2.729-1.252,2.729-2.8v-3.354c0-0.367-0.296-0.772-0.663-0.885l-14.15-4.716
				c-1.106-0.367-2.029-1.622-2.029-2.801v-4.386c0-3.464,2.801-5.563,6.267-5.563h13.117v2.689c0,0.258-0.183,0.479-0.479,0.479
				H338.32c-1.549,0-2.838,0.995-2.838,2.543v3.574c0,0.405,0.296,0.811,0.664,0.923l14.15,4.678
				c1.104,0.369,1.913,1.659,1.913,2.838v3.943c0,3.464-2.616,6.005-6.042,6.005h-14.114v-2.689c0-0.294,0.224-0.479,0.48-0.479
				H346.168z"/>
			<path fill="#284EB7" d="M346.168,558.142H331.91v-2.837c0-0.355,0.267-0.624,0.624-0.624h13.634c1.447,0,2.58-1.166,2.58-2.654
				v-3.354c0-0.311-0.257-0.652-0.559-0.742l-14.154-4.72c-1.171-0.39-2.125-1.71-2.125-2.939v-4.386c0-3.36,2.636-5.71,6.41-5.71
				h13.263v2.837c0,0.356-0.267,0.625-0.625,0.625H338.32c-1.56,0-2.691,1.008-2.691,2.396v3.574c0,0.339,0.249,0.69,0.561,0.779
				l14.15,4.684c1.131,0.378,2.019,1.684,2.019,2.976v3.943C352.358,555.496,349.697,558.142,346.168,558.142z M332.2,557.848
				h13.968c3.362,0,5.896-2.518,5.896-5.858v-3.943c0-1.155-0.814-2.366-1.816-2.699l-14.146-4.678
				c-0.429-0.128-0.767-0.595-0.767-1.062v-3.574c0-1.558,1.257-2.689,2.985-2.689h12.638c0.229,0,0.333-0.17,0.333-0.332v-2.543
				H338.32c-3.602,0-6.12,2.227-6.12,5.416v4.386c0,1.114,0.866,2.308,1.928,2.661l14.148,4.716c0.42,0.128,0.767,0.589,0.767,1.024
				v3.354c0,1.652-1.264,2.946-2.875,2.946h-13.634c-0.161,0-0.334,0.104-0.334,0.332V557.848z"/>
		</g>
		<g>
			<path fill="#284EB7" d="M373.285,554.826c1.549,0,2.728-1.252,2.728-2.8v-3.354c0-0.367-0.294-0.772-0.664-0.885l-14.149-4.716
				c-1.105-0.367-2.027-1.622-2.027-2.801v-4.386c0-3.464,2.803-5.563,6.266-5.563h13.118v2.689c0,0.258-0.183,0.479-0.479,0.479
				h-12.639c-1.55,0-2.84,0.995-2.84,2.543v3.574c0,0.405,0.296,0.811,0.666,0.923l14.148,4.678
				c1.104,0.369,1.915,1.659,1.915,2.838v3.943c0,3.464-2.614,6.005-6.042,6.005h-14.113v-2.689c0-0.294,0.221-0.479,0.479-0.479
				H373.285z"/>
			<path fill="#284EB7" d="M373.285,558.142h-14.26v-2.837c0-0.355,0.27-0.624,0.626-0.624h13.634c1.446,0,2.579-1.166,2.579-2.654
				v-3.354c0-0.311-0.255-0.652-0.559-0.742l-14.154-4.72c-1.172-0.39-2.126-1.71-2.126-2.939v-4.386c0-3.36,2.637-5.71,6.412-5.71
				h13.265v2.837c0,0.356-0.268,0.625-0.626,0.625h-12.639c-1.562,0-2.691,1.008-2.691,2.396v3.574c0,0.339,0.251,0.69,0.559,0.779
				l14.154,4.684c1.131,0.378,2.016,1.684,2.016,2.976v3.943C379.475,555.496,376.814,558.142,373.285,558.142z M359.32,557.848
				h13.965c3.362,0,5.895-2.518,5.895-5.858v-3.943c0-1.155-0.812-2.366-1.814-2.699l-14.148-4.678
				c-0.428-0.128-0.764-0.595-0.764-1.062v-3.574c0-1.558,1.255-2.689,2.984-2.689h12.639c0.229,0,0.333-0.17,0.333-0.332v-2.543
				h-12.972c-3.604,0-6.117,2.227-6.117,5.416v4.386c0,1.114,0.864,2.308,1.927,2.661l14.148,4.716
				c0.42,0.128,0.763,0.589,0.763,1.024v3.354c0,1.652-1.261,2.946-2.873,2.946h-13.634c-0.159,0-0.331,0.104-0.331,0.332V557.848z"
				/>
		</g>
		<g>
			<path fill="#284EB7" d="M393.179,558.143c-3.463,0-6.266-2.802-6.266-6.265v-15.438c0-3.464,2.803-6.265,6.266-6.265h8.326
				c3.428,0,6.266,2.801,6.266,6.265v15.438c0,3.463-2.838,6.265-6.266,6.265H393.179z M390.378,536.145v16.028
				c0,1.548,1.253,2.8,2.801,2.8h8.326c1.55,0,2.804-1.252,2.804-2.8v-16.028c0-1.549-1.254-2.801-2.804-2.801h-8.326
				C391.631,533.344,390.378,534.596,390.378,536.145z"/>
			<path fill="#284EB7" d="M401.505,558.288h-8.326c-3.535,0-6.409-2.874-6.409-6.41v-15.438c0-3.535,2.874-6.411,6.409-6.411h8.326
				c3.536,0,6.413,2.876,6.413,6.411v15.438C407.918,555.414,405.041,558.288,401.505,558.288z M393.179,530.32
				c-3.372,0-6.117,2.744-6.117,6.119v15.438c0,3.375,2.745,6.118,6.117,6.118h8.326c3.374,0,6.119-2.743,6.119-6.118v-15.438
				c0-3.375-2.745-6.119-6.119-6.119H393.179z M401.505,555.121h-8.326c-1.625,0-2.946-1.321-2.946-2.948v-16.028
				c0-1.623,1.321-2.946,2.946-2.946h8.326c1.627,0,2.947,1.323,2.947,2.946v16.028C404.452,553.8,403.132,555.121,401.505,555.121z
				 M393.179,533.49c-1.461,0-2.653,1.191-2.653,2.654v16.028c0,1.464,1.192,2.653,2.653,2.653h8.326
				c1.465,0,2.657-1.189,2.657-2.653v-16.028c0-1.463-1.192-2.654-2.657-2.654H393.179z"/>
		</g>
		<g>
			<path fill="#284EB7" d="M415.873,536.587c0-3.464,2.8-6.265,6.266-6.265h12.16v2.689c0,0.258-0.222,0.479-0.479,0.479h-11.681
				c-1.548,0-2.803,1.255-2.803,2.803v15.733c0,1.548,1.255,2.8,2.803,2.8h11.681c0.258,0,0.479,0.222,0.479,0.479v2.689h-12.16
				c-3.466,0-6.266-2.835-6.266-6.264V536.587z"/>
			<path fill="#284EB7" d="M434.445,558.142h-12.307c-3.537,0-6.412-2.876-6.412-6.411v-15.144c0-3.536,2.875-6.412,6.412-6.412
				h12.307v2.837c0,0.34-0.287,0.625-0.626,0.625h-11.681c-1.464,0-2.654,1.19-2.654,2.656v15.733c0,1.463,1.19,2.654,2.654,2.654
				h11.681c0.339,0,0.626,0.285,0.626,0.624V558.142z M422.139,530.469c-3.373,0-6.12,2.744-6.12,6.118v15.144
				c0,3.374,2.747,6.117,6.12,6.117h12.013v-2.543c0-0.176-0.154-0.332-0.332-0.332h-11.681c-1.626,0-2.946-1.323-2.946-2.946
				v-15.733c0-1.626,1.32-2.949,2.946-2.949h11.681c0.178,0,0.332-0.156,0.332-0.332v-2.543H422.139z"/>
		</g>
		<g>
			<path fill="#284EB7" d="M442.771,557.517v-27.194h2.984c0.261,0,0.479,0.222,0.479,0.479v27.192h-2.983
				C442.99,557.994,442.771,557.772,442.771,557.517z"/>
			<path fill="#284EB7" d="M446.383,558.142h-3.132c-0.34,0-0.629-0.286-0.629-0.625v-27.342h3.133c0.339,0,0.628,0.287,0.628,0.627
				V558.142z M442.916,530.469v27.048c0,0.178,0.157,0.331,0.335,0.331h2.837v-27.046c0-0.178-0.155-0.333-0.333-0.333H442.916z"/>
		</g>
		<g>
			<path fill="#284EB7" d="M479.58,557.994h-3.021c-0.331,0-0.588-0.222-0.663-0.478l-2.468-7.112h-14.077l-2.47,7.112
				c-0.072,0.256-0.368,0.478-0.662,0.478h-3.023l8.993-25.607c0.441-1.218,1.584-2.064,2.911-2.064h4.381
				c0.188,0,0.372,0.11,0.447,0.257L479.58,557.994z M472.322,547.236l-4.792-13.746h-1.806c-0.295,0-0.552,0.184-0.663,0.479
				l-4.606,13.267H472.322z"/>
			<path fill="#284EB7" d="M479.788,558.142h-3.229c-0.376,0-0.707-0.241-0.805-0.586l-2.432-7.006h-13.866l-2.436,7.014
				c-0.091,0.322-0.445,0.578-0.802,0.578h-3.228l0.065-0.196l8.992-25.606c0.472-1.297,1.697-2.164,3.051-2.164h4.381
				c0.241,0,0.477,0.14,0.576,0.338L479.788,558.142z M459.246,550.257h14.284l2.504,7.213c0.056,0.191,0.251,0.378,0.524,0.378
				h2.814l-9.582-27.22c-0.046-0.081-0.183-0.159-0.311-0.159H465.1c-1.229,0-2.347,0.791-2.774,1.968l-8.922,25.411h2.815
				c0.223,0,0.465-0.172,0.521-0.371L459.246,550.257z M472.527,547.383h-12.276l4.673-13.462c0.131-0.353,0.445-0.577,0.801-0.577
				h1.911L472.527,547.383z M460.662,547.09h11.452l-4.687-13.453h-1.703c-0.235,0-0.438,0.149-0.524,0.386L460.662,547.09z"/>
		</g>
		<g>
			<path fill="#284EB7" d="M485.951,536.587c0-3.464,2.801-6.265,6.261-6.265h12.161v2.689c0,0.258-0.219,0.479-0.477,0.479h-11.685
				c-1.545,0-2.798,1.255-2.798,2.803v15.733c0,1.548,1.253,2.8,2.798,2.8h11.685c0.258,0,0.477,0.222,0.477,0.479v2.689h-6.89
				l-0.515,1.808h1.399c1.253,0,2.284,1.03,2.284,2.319v1.365c0,1.252-1.031,2.284-2.284,2.284h-5.415v-1.475
				c0-0.442,0.367-0.81,0.773-0.81h4.312c0.185,0,0.33-0.113,0.33-0.296v-1.069c0-0.183-0.146-0.331-0.33-0.331h-3.76l1.032-3.796
				h-3.099c-3.46,0-6.261-2.835-6.261-6.264V536.587z"/>
			<path fill="#284EB7" d="M498.368,565.919h-5.563v-1.623c0-0.51,0.43-0.956,0.922-0.956h4.312c0.03,0,0.185-0.008,0.185-0.149
				v-1.069c0-0.103-0.08-0.183-0.185-0.183h-3.951l1.03-3.797h-2.905c-3.532,0-6.409-2.876-6.409-6.411v-15.144
				c0-3.536,2.877-6.412,6.409-6.412h12.31v2.837c0,0.34-0.287,0.625-0.625,0.625h-11.685c-1.46,0-2.649,1.19-2.649,2.656v15.733
				c0,1.463,1.189,2.654,2.649,2.654h11.685c0.338,0,0.625,0.285,0.625,0.624v2.837h-6.926l-0.436,1.512h1.208
				c1.34,0,2.433,1.107,2.433,2.468v1.365C500.801,564.826,499.708,565.919,498.368,565.919z M493.1,565.622h5.269
				c1.179,0,2.136-0.956,2.136-2.136v-1.365c0-1.199-0.957-2.174-2.136-2.174h-1.594l0.601-2.1h6.854v-2.543
				c0-0.176-0.155-0.332-0.333-0.332h-11.685c-1.622,0-2.944-1.323-2.944-2.946v-15.733c0-1.626,1.322-2.949,2.944-2.949h11.685
				c0.178,0,0.333-0.156,0.333-0.332v-2.543h-12.018c-3.371,0-6.114,2.744-6.114,6.118v15.144c0,3.374,2.743,6.117,6.114,6.117h3.29
				l-1.03,3.797h3.566c0.263,0,0.479,0.215,0.479,0.477v1.069c0,0.256-0.205,0.442-0.479,0.442h-4.312
				c-0.335,0-0.627,0.311-0.627,0.663V565.622z"/>
		</g>
		<g>
			<path fill="#284EB7" d="M536.539,557.994h-3.021c-0.332,0-0.588-0.222-0.663-0.478l-2.467-7.112h-14.077l-2.47,7.112
				c-0.073,0.256-0.369,0.478-0.663,0.478h-3.021l8.99-25.607c0.442-1.218,1.584-2.064,2.91-2.064h4.387
				c0.183,0,0.367,0.11,0.442,0.257L536.539,557.994z M529.28,547.236l-4.788-13.746h-1.807c-0.297,0-0.553,0.184-0.662,0.479
				l-4.606,13.267H529.28z M520.365,527.705h-1.512v-2.688c0-0.7,0.591-1.29,1.325-1.29h1.551c0.329,0,0.848,0.146,1.104,0.294
				c0.148,0.113,2.025,1.252,2.025,1.252c0.113,0.075,0.335,0.147,0.48,0.147h0.259c0.221,0,0.405-0.185,0.405-0.403v-0.7
				c0-0.333,0.258-0.59,0.591-0.59h1.51v2.689c0,0.701-0.591,1.289-1.327,1.289h-1.583c-0.335,0-0.812-0.147-1.071-0.295
				c-0.183-0.109-2.025-1.253-2.025-1.253c-0.148-0.073-0.367-0.146-0.518-0.146h-0.222c-0.219,0-0.401,0.185-0.401,0.405v0.701
				C520.956,527.447,520.698,527.705,520.365,527.705z"/>
			<path fill="#284EB7" d="M536.748,558.142h-3.229c-0.375,0-0.704-0.241-0.804-0.586l-2.432-7.006h-13.869l-2.434,7.014
				c-0.092,0.322-0.444,0.578-0.802,0.578h-3.228l0.066-0.196l8.994-25.606c0.469-1.297,1.694-2.164,3.047-2.164h4.387
				c0.235,0,0.472,0.14,0.572,0.338L536.748,558.142z M516.207,550.257h14.286l2.503,7.213c0.054,0.191,0.251,0.378,0.522,0.378
				h2.815l-9.586-27.22c-0.041-0.081-0.18-0.159-0.303-0.159h-4.387c-1.229,0-2.345,0.791-2.773,1.968l-8.922,25.411h2.815
				c0.223,0,0.467-0.172,0.523-0.371L516.207,550.257z M529.488,547.383H517.21l4.675-13.462c0.13-0.353,0.444-0.577,0.801-0.577
				h1.91L529.488,547.383z M517.62,547.09h11.456l-4.689-13.453h-1.701c-0.236,0-0.438,0.149-0.525,0.386L517.62,547.09z
				 M526.776,527.852h-1.583c-0.371,0-0.874-0.16-1.143-0.314c-0.187-0.11-2.031-1.254-2.031-1.254
				c-0.14-0.069-0.334-0.126-0.44-0.126h-0.222c-0.141,0-0.258,0.118-0.258,0.259v0.701c0,0.412-0.323,0.734-0.734,0.734h-1.657
				v-2.835c0-0.791,0.659-1.438,1.471-1.438h1.551c0.376,0,0.91,0.165,1.177,0.314c0.12,0.09,1.276,0.799,2.031,1.256
				c0.089,0.06,0.281,0.123,0.401,0.123h0.259c0.141,0,0.259-0.115,0.259-0.256v-0.7c0-0.413,0.322-0.737,0.737-0.737h1.656v2.837
				C528.25,527.208,527.586,527.852,526.776,527.852z M521.357,525.865h0.222c0.175,0,0.418,0.08,0.583,0.161
				c0.012,0.008,1.852,1.147,2.034,1.26c0.232,0.132,0.689,0.273,0.997,0.273h1.583c0.652,0,1.179-0.514,1.179-1.144v-2.543h-1.361
				c-0.254,0-0.445,0.189-0.445,0.443v0.7c0,0.304-0.246,0.55-0.551,0.55h-0.259c-0.186,0-0.435-0.087-0.561-0.169
				c-0.187-0.114-1.884-1.147-2.034-1.261c-0.21-0.119-0.7-0.264-1.015-0.264h-1.551c-0.649,0-1.181,0.512-1.181,1.144v2.543h1.367
				c0.251,0,0.442-0.191,0.442-0.442v-0.701C520.808,526.111,521.055,525.865,521.357,525.865z"/>
		</g>
		<g>
			<path fill="#284EB7" d="M549.691,558.143c-3.466,0-6.266-2.802-6.266-6.265v-15.438c0-3.464,2.8-6.265,6.266-6.265h8.328
				c3.426,0,6.263,2.801,6.263,6.265v15.438c0,3.463-2.837,6.265-6.263,6.265H549.691z M546.89,536.145v16.028
				c0,1.548,1.254,2.8,2.802,2.8h8.328c1.546,0,2.801-1.252,2.801-2.8v-16.028c0-1.549-1.255-2.801-2.801-2.801h-8.328
				C548.144,533.344,546.89,534.596,546.89,536.145z"/>
			<path fill="#284EB7" d="M558.02,558.288h-8.328c-3.536,0-6.412-2.874-6.412-6.41v-15.438c0-3.535,2.876-6.411,6.412-6.411h8.328
				c3.533,0,6.409,2.876,6.409,6.411v15.438C564.429,555.414,561.553,558.288,558.02,558.288z M549.691,530.32
				c-3.373,0-6.119,2.744-6.119,6.119v15.438c0,3.375,2.746,6.118,6.119,6.118h8.328c3.371,0,6.117-2.743,6.117-6.118v-15.438
				c0-3.375-2.746-6.119-6.117-6.119H549.691z M558.02,555.121h-8.328c-1.625,0-2.948-1.321-2.948-2.948v-16.028
				c0-1.623,1.323-2.946,2.948-2.946h8.328c1.623,0,2.946,1.323,2.946,2.946v16.028C560.966,553.8,559.643,555.121,558.02,555.121z
				 M549.691,533.49c-1.464,0-2.654,1.191-2.654,2.654v16.028c0,1.464,1.19,2.653,2.654,2.653h8.328
				c1.463,0,2.654-1.189,2.654-2.653v-16.028c0-1.463-1.191-2.654-2.654-2.654H549.691z"/>
		</g>
		<g>
			<path fill="#284EB7" d="M590.145,555.857v-23.471c0-1.143,0.921-2.064,2.063-2.064h0.591H604c3.464,0,6.264,2.801,6.264,6.265
				v2.799c0,1.77-1.401,4.128-3.389,4.533c1.987,0.518,3.389,2.762,3.389,4.531v3.243c0,3.466-2.8,6.301-6.264,6.301h-11.719
				C591.104,557.994,590.145,557.036,590.145,555.857z M593.606,542.334H604c1.548,0,2.8-1.254,2.8-2.8v-3.241
				c0-1.548-1.252-2.803-2.8-2.803h-9.69c-0.407,0-0.703,0.296-0.703,0.7V542.334z M606.8,548.305c0-1.549-1.252-2.803-2.8-2.803
				h-10.394v8.624c0,0.367,0.296,0.7,0.703,0.7H604c1.548,0,2.8-1.289,2.8-2.837V548.305z"/>
			<path fill="#284EB7" d="M604,558.142h-11.719c-1.26,0-2.285-1.024-2.285-2.284v-23.471c0-1.222,0.994-2.212,2.212-2.212H604
				c3.532,0,6.41,2.876,6.41,6.412v2.799c0,1.722-1.271,3.892-3.041,4.544c1.839,0.734,3.041,2.84,3.041,4.521v3.243
				C610.41,555.248,607.532,558.142,604,558.142z M592.208,530.469c-1.059,0-1.917,0.858-1.917,1.918v23.471
				c0,1.099,0.894,1.99,1.99,1.99H604c3.369,0,6.117-2.76,6.117-6.154v-3.243c0-1.672-1.346-3.889-3.28-4.39l-0.611-0.16
				l0.618-0.125c1.873-0.381,3.273-2.631,3.273-4.39v-2.799c0-3.374-2.748-6.118-6.117-6.118H592.208z M604,554.973h-9.69
				c-0.469,0-0.848-0.38-0.848-0.847v-8.769H604c1.624,0,2.946,1.32,2.946,2.947v3.685C606.946,553.636,605.624,554.973,604,554.973
				z M593.754,545.65v8.476c0,0.306,0.248,0.555,0.556,0.555H604c1.462,0,2.655-1.209,2.655-2.691v-3.685
				c0-1.464-1.193-2.654-2.655-2.654H593.754z M604,542.48h-10.538v-8.29c0-0.483,0.364-0.847,0.848-0.847H604
				c1.624,0,2.946,1.323,2.946,2.949v3.241C606.946,541.159,605.624,542.48,604,542.48z M593.754,542.187H604
				c1.462,0,2.655-1.19,2.655-2.652v-3.241c0-1.466-1.193-2.656-2.655-2.656h-9.69c-0.328,0-0.556,0.228-0.556,0.554V542.187z"/>
		</g>
		<g>
			<path fill="#284EB7" d="M621.573,544.729v12.788c0,0.256-0.222,0.478-0.48,0.478h-2.985v-25.535c0-1.179,0.957-2.137,2.139-2.137
				h11.57c3.463,0,6.262,2.174,6.262,5.933v3.573c0,3.243-2.32,5.013-5.009,5.714l5.895,12.452h-3.206
				c-0.257,0-0.553-0.222-0.662-0.442l-5.603-11.826h-4.716h-1.067c-1.031,0-1.805-0.297-2.064-0.997H621.573z M631.816,542.554
				c1.546,0,2.8-1.252,2.8-2.801v-3.46c0-1.548-1.254-2.803-2.8-2.803h-9.545c-0.406,0-0.698,0.333-0.698,0.7v7.667
				c0,0.404,0.332,0.696,0.698,0.696H631.816z"/>
			<path fill="#284EB7" d="M639.194,558.142h-3.437c-0.331,0-0.669-0.271-0.794-0.522l-5.563-11.748h-5.691
				c-0.946,0-1.626-0.245-1.991-0.712v12.357c0,0.339-0.287,0.625-0.626,0.625h-3.132v-25.683c0-1.26,1.025-2.284,2.285-2.284h11.57
				c3.772,0,6.409,2.502,6.409,6.08v3.573c0,2.823-1.801,4.932-4.949,5.81L639.194,558.142z M621.425,544.582h0.319l0.039,0.097
				c0.273,0.743,1.199,0.9,1.927,0.9h5.878l5.64,11.911c0.085,0.166,0.329,0.357,0.53,0.357h2.974l-5.872-12.403l0.171-0.045
				c1.831-0.477,4.903-1.836,4.903-5.571v-3.573c0-3.462-2.459-5.786-6.117-5.786h-11.57c-1.1,0-1.991,0.892-1.991,1.99v25.389
				h2.838c0.177,0,0.332-0.153,0.332-0.331V544.582z M631.816,542.702h-9.545c-0.468,0-0.847-0.381-0.847-0.845v-7.667
				c0-0.466,0.379-0.847,0.847-0.847h9.545c1.624,0,2.948,1.323,2.948,2.949v3.46C634.765,541.381,633.44,542.702,631.816,542.702z
				 M622.271,533.637c-0.305,0-0.553,0.248-0.553,0.554v7.667c0,0.303,0.248,0.55,0.553,0.55h9.545c1.462,0,2.654-1.188,2.654-2.654
				v-3.46c0-1.466-1.192-2.656-2.654-2.656H622.271z"/>
		</g>
		<g>
			<path fill="#284EB7" d="M670.244,557.994h-3.022c-0.33,0-0.591-0.222-0.665-0.478l-2.468-7.112h-14.074l-2.47,7.112
				c-0.073,0.256-0.367,0.478-0.662,0.478h-3.023l8.994-25.607c0.439-1.218,1.581-2.064,2.908-2.064h4.385
				c0.183,0,0.37,0.11,0.441,0.257L670.244,557.994z M662.983,547.236l-4.789-13.746h-1.807c-0.294,0-0.552,0.184-0.661,0.479
				l-4.606,13.267H662.983z"/>
			<path fill="#284EB7" d="M670.451,558.142h-3.229c-0.375,0-0.707-0.241-0.803-0.586l-2.433-7.006h-13.869l-2.434,7.014
				c-0.091,0.322-0.444,0.578-0.801,0.578h-3.23l0.068-0.196l8.991-25.606c0.472-1.297,1.698-2.164,3.05-2.164h4.385
				c0.237,0,0.474,0.14,0.574,0.338L670.451,558.142z M649.91,550.257h14.284l2.504,7.213c0.053,0.191,0.251,0.378,0.523,0.378
				h2.814l-9.585-27.22c-0.043-0.081-0.18-0.159-0.305-0.159h-4.385c-1.231,0-2.345,0.791-2.771,1.968l-8.922,25.411h2.814
				c0.222,0,0.466-0.172,0.521-0.371L649.91,550.257z M663.189,547.383h-12.276l4.675-13.462c0.131-0.353,0.444-0.577,0.8-0.577
				h1.911L663.189,547.383z M651.325,547.09h11.454l-4.689-13.453h-1.702c-0.236,0-0.437,0.149-0.526,0.386L651.325,547.09z"/>
		</g>
		<g>
			<path fill="#284EB7" d="M690.249,554.826c1.546,0,2.727-1.252,2.727-2.8v-3.354c0-0.367-0.294-0.772-0.663-0.885l-14.148-4.716
				c-1.106-0.367-2.027-1.622-2.027-2.801v-4.386c0-3.464,2.801-5.563,6.262-5.563h13.119v2.689c0,0.258-0.182,0.479-0.48,0.479
				h-12.639c-1.546,0-2.837,0.995-2.837,2.543v3.574c0,0.405,0.296,0.811,0.664,0.923l14.15,4.678
				c1.104,0.369,1.915,1.659,1.915,2.838v3.943c0,3.464-2.614,6.005-6.042,6.005h-14.112v-2.689c0-0.294,0.221-0.479,0.477-0.479
				H690.249z"/>
			<path fill="#284EB7" d="M690.249,558.142h-14.261v-2.837c0-0.355,0.271-0.624,0.625-0.624h13.636c1.446,0,2.58-1.166,2.58-2.654
				v-3.354c0-0.311-0.255-0.652-0.559-0.742l-14.154-4.72c-1.173-0.39-2.128-1.71-2.128-2.939v-4.386c0-3.36,2.639-5.71,6.41-5.71
				h13.266v2.837c0,0.356-0.269,0.625-0.627,0.625h-12.639c-1.557,0-2.688,1.008-2.688,2.396v3.574c0,0.339,0.249,0.69,0.559,0.779
				l14.154,4.684c1.131,0.378,2.016,1.684,2.016,2.976v3.943C696.438,555.496,693.775,558.142,690.249,558.142z M676.283,557.848
				h13.966c3.36,0,5.894-2.518,5.894-5.858v-3.943c0-1.155-0.812-2.366-1.813-2.699l-14.147-4.678
				c-0.428-0.128-0.764-0.595-0.764-1.062v-3.574c0-1.558,1.254-2.689,2.98-2.689h12.639c0.23,0,0.336-0.17,0.336-0.332v-2.543
				h-12.975c-3.6,0-6.115,2.227-6.115,5.416v4.386c0,1.114,0.862,2.308,1.927,2.661l14.149,4.716
				c0.42,0.128,0.762,0.589,0.762,1.024v3.354c0,1.652-1.261,2.946-2.872,2.946h-13.636c-0.157,0-0.33,0.104-0.33,0.332V557.848z"/>
		</g>
		<g>
			<path fill="#284EB7" d="M704.689,557.517v-27.194h2.982c0.261,0,0.479,0.222,0.479,0.479v27.192h-2.981
				C704.911,557.994,704.689,557.772,704.689,557.517z"/>
			<path fill="#284EB7" d="M708.3,558.142h-3.13c-0.341,0-0.626-0.286-0.626-0.625v-27.342h3.128c0.342,0,0.628,0.287,0.628,0.627
				V558.142z M704.835,530.469v27.048c0,0.178,0.156,0.331,0.335,0.331h2.836v-27.046c0-0.178-0.155-0.333-0.334-0.333H704.835z"/>
		</g>
		<g>
			<path fill="#284EB7" d="M716.847,551.622v-20.82c0-0.258,0.222-0.479,0.479-0.479h2.984v21.63c0,1.585,1.289,2.874,2.836,2.874
				h11.497c0.26,0,0.479,0.222,0.479,0.479v2.689h-11.977C719.684,557.994,716.847,555.121,716.847,551.622z"/>
			<path fill="#284EB7" d="M735.271,558.142h-12.125c-3.555,0-6.445-2.925-6.445-6.52v-20.82c0-0.34,0.284-0.627,0.625-0.627h3.131
				v21.777c0,1.503,1.206,2.729,2.689,2.729h11.497c0.341,0,0.628,0.285,0.628,0.624V558.142z M717.326,530.469
				c-0.177,0-0.333,0.155-0.333,0.333v20.82c0,3.434,2.761,6.226,6.153,6.226h11.829v-2.543c0-0.176-0.154-0.332-0.332-0.332
				h-11.497c-1.644,0-2.982-1.354-2.982-3.021v-21.483H717.326z"/>
		</g>
		<g>
			<path fill="#284EB7" d="M745.216,536.293v6.999c0.37-0.442,1.032-0.738,1.808-0.738h12.123v2.692c0,0.256-0.22,0.479-0.48,0.479
				h-13.45v6.301c0,1.548,1.255,2.8,2.8,2.8h11.942c0.257,0,0.478,0.222,0.478,0.479v2.689h-12.42c-3.463,0-6.261-2.801-6.261-6.264
				v-15.144c0-3.464,2.798-6.265,6.261-6.265h12.42v2.689c0,0.258-0.221,0.479-0.478,0.479h-11.942
				C746.471,533.49,745.216,534.745,745.216,536.293z"/>
			<path fill="#284EB7" d="M760.581,558.142h-12.565c-3.534,0-6.409-2.876-6.409-6.411v-15.144c0-3.536,2.875-6.412,6.409-6.412
				h12.565v2.837c0,0.34-0.286,0.625-0.623,0.625h-11.942c-1.461,0-2.652,1.19-2.652,2.656v6.65c0.42-0.338,1.017-0.536,1.66-0.536
				h12.271v2.839c0,0.34-0.289,0.625-0.628,0.625h-13.303v6.155c0,1.463,1.191,2.654,2.652,2.654h11.942
				c0.337,0,0.623,0.285,0.623,0.624V558.142z M748.016,530.469c-3.373,0-6.117,2.744-6.117,6.118v15.144
				c0,3.374,2.744,6.117,6.117,6.117h12.271v-2.543c0-0.176-0.155-0.332-0.329-0.332h-11.942c-1.622,0-2.946-1.323-2.946-2.946
				v-6.447h13.597c0.179,0,0.334-0.157,0.334-0.333v-2.544h-11.977c-0.703,0-1.337,0.257-1.694,0.684l-0.26,0.312v-7.404
				c0-1.626,1.324-2.949,2.946-2.949h11.942c0.174,0,0.329-0.156,0.329-0.332v-2.543H748.016z"/>
		</g>
		<g>
			<path fill="#284EB7" d="M768.279,557.517v-27.194h2.986c0.258,0,0.479,0.222,0.479,0.479v27.192h-2.985
				C768.5,557.994,768.279,557.772,768.279,557.517z"/>
			<path fill="#284EB7" d="M771.891,558.142h-3.131c-0.34,0-0.627-0.286-0.627-0.625v-27.342h3.133c0.339,0,0.625,0.287,0.625,0.627
				V558.142z M768.428,530.469v27.048c0,0.178,0.153,0.331,0.332,0.331h2.84v-27.046c0-0.178-0.158-0.333-0.334-0.333H768.428z"/>
		</g>
		<g>
			<path fill="#284EB7" d="M783.902,544.729v12.788c0,0.256-0.222,0.478-0.479,0.478h-2.986v-25.535c0-1.179,0.958-2.137,2.14-2.137
				h11.568c3.465,0,6.265,2.174,6.265,5.933v3.573c0,3.243-2.322,5.013-5.012,5.714l5.895,12.452h-3.205
				c-0.257,0-0.553-0.222-0.663-0.442l-5.603-11.826h-4.714h-1.067c-1.033,0-1.808-0.297-2.066-0.997H783.902z M794.146,542.554
				c1.549,0,2.8-1.252,2.8-2.801v-3.46c0-1.548-1.251-2.803-2.8-2.803h-9.545c-0.403,0-0.698,0.333-0.698,0.7v7.667
				c0,0.404,0.331,0.696,0.698,0.696H794.146z"/>
			<path fill="#284EB7" d="M801.525,558.142h-3.438c-0.33,0-0.667-0.271-0.795-0.522l-5.563-11.748h-5.689
				c-0.949,0-1.626-0.245-1.993-0.712v12.357c0,0.339-0.287,0.625-0.624,0.625h-3.132v-25.683c0-1.26,1.024-2.284,2.285-2.284
				h11.568c3.775,0,6.411,2.502,6.411,6.08v3.573c0,2.823-1.802,4.932-4.951,5.81L801.525,558.142z M783.756,544.582h0.322
				l0.035,0.097c0.275,0.743,1.2,0.9,1.928,0.9h5.875l0.041,0.082l5.601,11.829c0.084,0.166,0.33,0.357,0.53,0.357h2.975
				l-5.874-12.403l0.173-0.045c1.833-0.477,4.902-1.836,4.902-5.571v-3.573c0-3.462-2.458-5.786-6.118-5.786h-11.568
				c-1.101,0-1.991,0.892-1.991,1.99v25.389h2.838c0.175,0,0.332-0.153,0.332-0.331V544.582z M794.146,542.702h-9.545
				c-0.463,0-0.845-0.381-0.845-0.845v-7.667c0-0.466,0.382-0.847,0.845-0.847h9.545c1.624,0,2.947,1.323,2.947,2.949v3.46
				C797.093,541.381,795.77,542.702,794.146,542.702z M784.601,533.637c-0.304,0-0.553,0.248-0.553,0.554v7.667
				c0,0.303,0.249,0.55,0.553,0.55h9.545c1.463,0,2.653-1.188,2.653-2.654v-3.46c0-1.466-1.19-2.656-2.653-2.656H784.601z"/>
		</g>
		<g>
			<path fill="#284EB7" d="M832.577,557.994h-3.025c-0.33,0-0.587-0.222-0.659-0.478l-2.471-7.112h-14.076l-2.469,7.112
				c-0.072,0.256-0.368,0.478-0.662,0.478h-3.023l8.992-25.607c0.439-1.218,1.584-2.064,2.911-2.064h4.385
				c0.183,0,0.366,0.11,0.443,0.257L832.577,557.994z M825.316,547.236l-4.791-13.746h-1.806c-0.294,0-0.552,0.184-0.661,0.479
				l-4.609,13.267H825.316z"/>
			<path fill="#284EB7" d="M832.783,558.142h-3.231c-0.374,0-0.704-0.241-0.802-0.586l-2.434-7.006h-13.865l-2.437,7.014
				c-0.091,0.322-0.442,0.578-0.8,0.578h-3.23l0.067-0.196l8.993-25.606c0.469-1.297,1.693-2.164,3.05-2.164h4.385
				c0.235,0,0.471,0.14,0.573,0.338L832.783,558.142z M812.241,550.257h14.285l2.503,7.213c0.057,0.191,0.251,0.378,0.522,0.378
				h2.817l-9.588-27.22c-0.041-0.081-0.179-0.159-0.302-0.159h-4.385c-1.23,0-2.347,0.791-2.773,1.968l-8.921,25.411h2.814
				c0.222,0,0.467-0.172,0.52-0.371L812.241,550.257z M825.522,547.383h-12.277l4.673-13.462c0.133-0.353,0.448-0.577,0.802-0.577
				h1.911L825.522,547.383z M813.658,547.09h11.453l-4.69-13.453h-1.701c-0.234,0-0.436,0.149-0.524,0.386L813.658,547.09z"/>
		</g>
		<g>
			<path fill="#284EB7" d="M856.851,555.857v-23.398c0-1.179,0.958-2.137,2.137-2.137h11.831c3.462,0,6.262,2.801,6.262,6.265
				v15.144c0,3.429-2.8,6.264-6.262,6.264h-11.831C857.809,557.994,856.851,557.036,856.851,555.857z M870.818,554.826
				c1.546,0,2.798-1.252,2.798-2.8v-15.733c0-1.548-1.252-2.803-2.798-2.803h-9.803c-0.406,0-0.701,0.296-0.701,0.7v19.936
				c0,0.367,0.295,0.7,0.701,0.7H870.818z"/>
			<path fill="#284EB7" d="M870.818,558.142h-11.831c-1.257,0-2.28-1.024-2.28-2.284v-23.398c0-1.26,1.023-2.284,2.28-2.284h11.831
				c3.532,0,6.41,2.876,6.41,6.412v15.144C877.229,555.266,874.351,558.142,870.818,558.142z M858.987,530.469
				c-1.097,0-1.989,0.892-1.989,1.99v23.398c0,1.099,0.893,1.99,1.989,1.99h11.831c3.372,0,6.115-2.743,6.115-6.117v-15.144
				c0-3.374-2.743-6.118-6.115-6.118H858.987z M870.818,554.973h-9.803c-0.469,0-0.848-0.38-0.848-0.847V534.19
				c0-0.483,0.365-0.847,0.848-0.847h9.803c1.623,0,2.944,1.323,2.944,2.949v15.733
				C873.763,553.649,872.441,554.973,870.818,554.973z M861.016,533.637c-0.328,0-0.553,0.228-0.553,0.554v19.936
				c0,0.306,0.247,0.555,0.553,0.555h9.803c1.462,0,2.654-1.191,2.654-2.654v-15.733c0-1.466-1.192-2.656-2.654-2.656H861.016z"/>
		</g>
		<g>
			<path fill="#284EB7" d="M888.611,536.293v6.999c0.368-0.442,1.031-0.738,1.805-0.738h12.123v2.692
				c0,0.256-0.22,0.479-0.478,0.479h-13.45v6.301c0,1.548,1.253,2.8,2.801,2.8h11.94c0.254,0,0.479,0.222,0.479,0.479v2.689h-12.419
				c-3.465,0-6.266-2.801-6.266-6.264v-15.144c0-3.464,2.801-6.265,6.266-6.265h12.419v2.689c0,0.258-0.225,0.479-0.479,0.479
				h-11.94C889.864,533.49,888.611,534.745,888.611,536.293z"/>
			<path fill="#284EB7" d="M903.975,558.142h-12.563c-3.534,0-6.414-2.876-6.414-6.411v-15.144c0-3.536,2.88-6.412,6.414-6.412
				h12.563v2.837c0,0.34-0.285,0.625-0.622,0.625h-11.94c-1.465,0-2.654,1.19-2.654,2.656v6.65c0.424-0.338,1.016-0.536,1.658-0.536
				h12.271v2.839c0,0.34-0.287,0.625-0.626,0.625h-13.304v6.155c0,1.463,1.189,2.654,2.654,2.654h11.94
				c0.337,0,0.622,0.285,0.622,0.624V558.142z M891.412,530.469c-3.375,0-6.119,2.744-6.119,6.118v15.144
				c0,3.374,2.744,6.117,6.119,6.117h12.271v-2.543c0-0.176-0.156-0.332-0.33-0.332h-11.94c-1.624,0-2.945-1.323-2.945-2.946v-6.447
				h13.595c0.175,0,0.333-0.157,0.333-0.333v-2.544h-11.979c-0.704,0-1.334,0.257-1.692,0.684l-0.257,0.312v-7.404
				c0-1.626,1.321-2.949,2.945-2.949h11.94c0.174,0,0.33-0.156,0.33-0.332v-2.543H891.412z"/>
		</g>
		<g>
			<path fill="#284EB7" d="M942,554.826c1.547,0,2.726-1.252,2.726-2.8v-3.354c0-0.367-0.294-0.772-0.664-0.885l-14.148-4.716
				c-1.104-0.367-2.028-1.622-2.028-2.801v-4.386c0-3.464,2.803-5.563,6.266-5.563h13.116v2.689c0,0.258-0.181,0.479-0.478,0.479
				H934.15c-1.545,0-2.838,0.995-2.838,2.543v3.574c0,0.405,0.295,0.811,0.664,0.923l14.148,4.678
				c1.107,0.369,1.916,1.659,1.916,2.838v3.943c0,3.464-2.617,6.005-6.041,6.005h-14.115v-2.689c0-0.294,0.221-0.479,0.479-0.479
				H942z"/>
			<path fill="#284EB7" d="M942,558.142h-14.261v-2.837c0-0.355,0.27-0.624,0.625-0.624H942c1.447,0,2.582-1.166,2.582-2.654v-3.354
				c0-0.311-0.26-0.652-0.562-0.742l-14.154-4.72c-1.171-0.39-2.127-1.71-2.127-2.939v-4.386c0-3.36,2.639-5.71,6.411-5.71h13.263
				v2.837c0,0.356-0.268,0.625-0.624,0.625H934.15c-1.56,0-2.689,1.008-2.689,2.396v3.574c0,0.339,0.249,0.69,0.559,0.779
				l14.152,4.684c1.13,0.378,2.015,1.684,2.015,2.976v3.943C948.187,555.496,945.528,558.142,942,558.142z M928.033,557.848H942
				c3.36,0,5.895-2.518,5.895-5.858v-3.943c0-1.155-0.813-2.366-1.816-2.699l-14.146-4.678c-0.43-0.128-0.765-0.595-0.765-1.062
				v-3.574c0-1.558,1.253-2.689,2.983-2.689h12.639c0.229,0,0.334-0.17,0.334-0.332v-2.543H934.15c-3.601,0-6.117,2.227-6.117,5.416
				v4.386c0,1.114,0.864,2.308,1.926,2.661l14.149,4.716c0.42,0.128,0.764,0.589,0.764,1.024v3.354c0,1.652-1.262,2.946-2.872,2.946
				h-13.636c-0.158,0-0.331,0.104-0.331,0.332V557.848z"/>
		</g>
		<g>
			<path fill="#284EB7" d="M974.199,530.322v2.689c0,0.258-0.222,0.479-0.48,0.479h-7.883v24.026c0,0.256-0.186,0.478-0.479,0.478
				h-2.984V533.49h-8.255v-2.688c0-0.258,0.222-0.479,0.48-0.479H974.199z"/>
			<path fill="#284EB7" d="M965.356,558.142h-3.133v-24.505h-8.253v-2.835c0-0.34,0.285-0.627,0.627-0.627h19.749v2.837
				c0,0.34-0.287,0.625-0.628,0.625h-7.736v23.88C965.982,557.873,965.713,558.142,965.356,558.142z M962.516,557.848h2.841
				c0.229,0,0.333-0.172,0.333-0.331v-24.173h8.029c0.179,0,0.336-0.156,0.336-0.332v-2.543h-19.457
				c-0.179,0-0.332,0.155-0.332,0.333v2.542h8.25V557.848z"/>
		</g>
		<g>
			<path fill="#284EB7" d="M1003.085,557.994h-3.021c-0.331,0-0.59-0.222-0.664-0.478l-2.471-7.112h-14.072l-2.47,7.112
				c-0.075,0.256-0.372,0.478-0.663,0.478h-3.021l8.988-25.607c0.445-1.218,1.586-2.064,2.913-2.064h4.384
				c0.186,0,0.369,0.11,0.443,0.257L1003.085,557.994z M995.828,547.236l-4.792-13.746h-1.806c-0.295,0-0.553,0.184-0.663,0.479
				l-4.604,13.267H995.828z"/>
			<path fill="#284EB7" d="M1003.293,558.142h-3.229c-0.375,0-0.708-0.241-0.805-0.586l-2.431-7.006h-13.868l-2.437,7.014
				c-0.089,0.322-0.444,0.578-0.8,0.578h-3.229l0.066-0.196l8.993-25.606c0.472-1.297,1.695-2.164,3.05-2.164h4.384
				c0.238,0,0.474,0.14,0.576,0.338L1003.293,558.142z M982.753,550.257h14.282l2.505,7.213c0.054,0.191,0.251,0.378,0.524,0.378
				h2.814l-9.586-27.22c-0.042-0.081-0.179-0.159-0.305-0.159h-4.384c-1.23,0-2.345,0.791-2.773,1.968l-8.922,25.411h2.815
				c0.221,0,0.465-0.172,0.52-0.371L982.753,550.257z M996.031,547.383h-12.277l4.674-13.462c0.133-0.353,0.446-0.577,0.803-0.577
				h1.908L996.031,547.383z M984.168,547.09h11.454l-4.692-13.453h-1.699c-0.236,0-0.439,0.149-0.525,0.386L984.168,547.09z"/>
		</g>
		<g>
			<path fill="#284EB7" d="M1013.105,544.729v12.788c0,0.256-0.222,0.478-0.479,0.478h-2.983v-25.535
				c0-1.179,0.957-2.137,2.136-2.137h11.57c3.466,0,6.266,2.174,6.266,5.933v3.573c0,3.243-2.323,5.013-5.012,5.714l5.895,12.452
				h-3.206c-0.257,0-0.552-0.222-0.662-0.442l-5.603-11.826h-4.716h-1.066c-1.033,0-1.808-0.297-2.064-0.997H1013.105z
				 M1023.349,542.554c1.546,0,2.8-1.252,2.8-2.801v-3.46c0-1.548-1.254-2.803-2.8-2.803h-9.544c-0.407,0-0.699,0.333-0.699,0.7
				v7.667c0,0.404,0.331,0.696,0.699,0.696H1023.349z"/>
			<path fill="#284EB7" d="M1030.729,558.142h-3.438c-0.328,0-0.668-0.271-0.794-0.522l-5.563-11.748h-5.689
				c-0.949,0-1.625-0.245-1.993-0.712v12.357c0,0.339-0.286,0.625-0.625,0.625h-3.131v-25.683c0-1.26,1.025-2.284,2.283-2.284h11.57
				c3.776,0,6.412,2.502,6.412,6.08v3.573c0,2.823-1.804,4.932-4.952,5.81L1030.729,558.142z M1012.957,544.582h0.325l0.034,0.097
				c0.276,0.743,1.2,0.9,1.928,0.9h5.875l0.042,0.082l5.6,11.829c0.084,0.166,0.329,0.357,0.53,0.357h2.974l-5.872-12.403
				l0.173-0.045c1.831-0.477,4.903-1.836,4.903-5.571v-3.573c0-3.462-2.46-5.786-6.12-5.786h-11.57c-1.099,0-1.99,0.892-1.99,1.99
				v25.389h2.838c0.176,0,0.331-0.153,0.331-0.331V544.582z M1023.349,542.702h-9.544c-0.467,0-0.848-0.381-0.848-0.845v-7.667
				c0-0.466,0.381-0.847,0.848-0.847h9.544c1.624,0,2.948,1.323,2.948,2.949v3.46
				C1026.297,541.381,1024.973,542.702,1023.349,542.702z M1013.805,533.637c-0.306,0-0.554,0.248-0.554,0.554v7.667
				c0,0.303,0.248,0.55,0.554,0.55h9.544c1.464,0,2.653-1.188,2.653-2.654v-3.46c0-1.466-1.189-2.656-2.653-2.656H1013.805z"/>
		</g>
		<g>
			<path fill="#284EB7" d="M1055.66,530.322v2.689c0,0.258-0.222,0.479-0.479,0.479h-7.885v24.026c0,0.256-0.185,0.478-0.479,0.478
				h-2.986V533.49h-8.256v-2.688c0-0.258,0.226-0.479,0.48-0.479H1055.66z"/>
			<path fill="#284EB7" d="M1046.818,558.142h-3.135v-24.505h-8.252v-2.835c0-0.34,0.285-0.627,0.625-0.627h19.752v2.837
				c0,0.34-0.286,0.625-0.627,0.625h-7.738v23.88C1047.443,557.873,1047.174,558.142,1046.818,558.142z M1043.979,557.848h2.84
				c0.229,0,0.332-0.172,0.332-0.331v-24.173h8.031c0.179,0,0.333-0.156,0.333-0.332v-2.543h-19.458
				c-0.177,0-0.332,0.155-0.332,0.333v2.542h8.254V557.848z"/>
		</g>
		<g>
			<path fill="#284EB7" d="M1062.216,551.878v-21.556h2.985c0.257,0,0.478,0.222,0.478,0.479v21.371c0,1.548,1.253,2.8,2.8,2.8
				h8.329c1.549,0,2.8-1.252,2.8-2.8v-21.371c0-0.258,0.221-0.479,0.479-0.479h2.985v21.556c0,3.463-2.837,6.265-6.265,6.265h-8.329
				C1065.016,558.143,1062.216,555.341,1062.216,551.878z"/>
			<path fill="#284EB7" d="M1076.808,558.288h-8.329c-3.535,0-6.411-2.874-6.411-6.41v-21.703h3.134c0.34,0,0.625,0.287,0.625,0.627
				v21.371c0,1.464,1.189,2.653,2.652,2.653h8.329c1.463,0,2.653-1.189,2.653-2.653v-21.371c0-0.34,0.287-0.627,0.626-0.627h3.132
				v21.703C1083.219,555.414,1080.344,558.288,1076.808,558.288z M1062.361,530.469v21.409c0,3.375,2.744,6.118,6.117,6.118h8.329
				c3.374,0,6.119-2.743,6.119-6.118v-21.409h-2.84c-0.179,0-0.331,0.155-0.331,0.333v21.371c0,1.627-1.324,2.948-2.948,2.948
				h-8.329c-1.624,0-2.946-1.321-2.946-2.948v-21.371c0-0.178-0.154-0.333-0.331-0.333H1062.361z"/>
		</g>
		<g>
			<path fill="#284EB7" d="M1111.184,536.587v3.646c0,3.428-2.801,6.265-6.265,6.265h-8.07c-1.139,0-2.063-0.664-2.137-1.474v12.492
				c0,0.256-0.222,0.478-0.479,0.478h-2.984v-25.535c0-1.179,0.96-2.137,2.137-2.137h11.534
				C1108.383,530.322,1111.184,533.16,1111.184,536.587z M1107.72,536.293c0-1.548-1.253-2.803-2.801-2.803h-9.505
				c-0.406,0-0.702,0.333-0.702,0.7v8.438c0,0.369,0.333,0.701,0.702,0.701c0,0,0,0,0.034,0h9.471c1.548,0,2.801-1.254,2.801-2.8
				V536.293z"/>
			<path fill="#284EB7" d="M1094.232,558.142h-3.131v-25.683c0-1.26,1.024-2.284,2.283-2.284h11.534
				c3.535,0,6.413,2.876,6.413,6.412v3.646c0,3.535-2.878,6.412-6.413,6.412h-8.07c-0.845,0-1.594-0.351-1.991-0.875v11.746
				C1094.857,557.855,1094.574,558.142,1094.232,558.142z M1091.396,557.848h2.837c0.178,0,0.334-0.153,0.334-0.331v-12.492
				l0.291-0.016c0.068,0.755,0.943,1.345,1.991,1.345h8.07c3.374,0,6.118-2.746,6.118-6.12v-3.646c0-3.374-2.744-6.118-6.118-6.118
				h-11.534c-1.097,0-1.989,0.892-1.989,1.99V557.848z M1104.919,543.477h-9.505c-0.453,0-0.848-0.396-0.848-0.848v-8.438
				c0-0.466,0.38-0.847,0.848-0.847h9.505c1.626,0,2.946,1.323,2.946,2.949v4.237
				C1107.865,542.153,1106.545,543.477,1104.919,543.477z M1095.414,533.637c-0.305,0-0.557,0.248-0.557,0.554v8.438
				c0,0.291,0.265,0.556,0.557,0.556h9.505c1.464,0,2.654-1.192,2.654-2.654v-4.237c0-1.466-1.19-2.656-2.654-2.656H1095.414z"/>
		</g>
		<g>
			<path fill="#284EB7" d="M1131.632,554.826c1.546,0,2.726-1.252,2.726-2.8v-3.354c0-0.367-0.293-0.772-0.664-0.885l-14.147-4.716
				c-1.106-0.367-2.027-1.622-2.027-2.801v-4.386c0-3.464,2.8-5.563,6.264-5.563h13.116v2.689c0,0.258-0.184,0.479-0.478,0.479
				h-12.639c-1.548,0-2.837,0.995-2.837,2.543v3.574c0,0.405,0.296,0.811,0.662,0.923l14.152,4.678
				c1.104,0.369,1.915,1.659,1.915,2.838v3.943c0,3.464-2.617,6.005-6.043,6.005h-14.113v-2.689c0-0.294,0.221-0.479,0.479-0.479
				H1131.632z"/>
			<path fill="#284EB7" d="M1131.632,558.142h-14.26v-2.837c0-0.355,0.269-0.624,0.625-0.624h13.635
				c1.446,0,2.579-1.166,2.579-2.654v-3.354c0-0.311-0.255-0.652-0.559-0.742l-14.152-4.72c-1.176-0.39-2.128-1.71-2.128-2.939
				v-4.386c0-3.36,2.635-5.71,6.41-5.71h13.265v2.837c0,0.356-0.271,0.625-0.626,0.625h-12.639c-1.56,0-2.69,1.008-2.69,2.396v3.574
				c0,0.339,0.248,0.69,0.557,0.779l14.156,4.684c1.129,0.378,2.016,1.684,2.016,2.976v3.943
				C1137.82,555.496,1135.159,558.142,1131.632,558.142z M1117.664,557.848h13.968c3.36,0,5.895-2.518,5.895-5.858v-3.943
				c0-1.155-0.812-2.366-1.814-2.699l-14.148-4.678c-0.427-0.128-0.765-0.595-0.765-1.062v-3.574c0-1.558,1.253-2.689,2.983-2.689
				h12.639c0.228,0,0.332-0.17,0.332-0.332v-2.543h-12.971c-3.603,0-6.118,2.227-6.118,5.416v4.386c0,1.114,0.864,2.308,1.928,2.661
				l14.146,4.716c0.422,0.128,0.767,0.589,0.767,1.024v3.354c0,1.652-1.263,2.946-2.873,2.946h-13.635
				c-0.162,0-0.333,0.104-0.333,0.332V557.848z"/>
		</g>
	</g>
	<g>
		<path fill="#3376D2" d="M824.42,489.426l-87.18,0.084c-22.502-0.175-42.345-18.922-42.345-41.613V280.909h21.295
			c1.683,0,3.08,1.4,3.08,3.079v87.979v77.049c0,9.248,7.289,16.531,19.112,16.531h85.951L824.42,489.426z"/>
	</g>
	<g>
		<path fill="#3376D2" d="M1089.431,489.426l-87.181,0.084c-22.499-0.175-42.345-18.922-42.345-41.613V280.909h21.3
			c1.684,0,3.078,1.4,3.078,3.079v87.979v77.049c0,9.248,7.286,16.531,19.112,16.531h85.948L1089.431,489.426z"/>
	</g>
	<g>
		<g>
			<path fill="#284EB7" d="M1405,429h-47.442c-19.548,0-35.558-13.988-35.558-31.773v-15.188c0-17.74,15.955-32.469,35.503-32.469
				l95.146-0.139l0.063,22.917l-95.381-0.062c-6.6,0-11.331,2.928-11.331,8.583v15.187c0,5.694,4.958,11.945,11.558,11.945H1405V429
				z"/>
		</g>
	</g>
	<g>
		<g>
			<path fill="#3376D2" d="M1369,408h47.738c19.547,0,36.262,14.457,36.262,32.242v16.359c0,17.739-16.715,32.398-36.262,32.398
				H1261.15l0.036-22.74l155.619,0.079c6.605,0,11.194-2.91,11.194-8.567v-16.358c0-5.694-4.661-12.414-11.262-12.414H1369V408z"/>
		</g>
	</g>
	<g>
		<g>
			<path fill="#284EB7" d="M628,429h-46.49c-19.547,0-36.51-13.988-36.51-31.773v-15.188c0-17.74,16.431-32.469,35.979-32.469
				l80.649-0.139l0.046,22.917l-81.428-0.062c-6.6,0-12.247,2.928-12.247,8.583v15.187c0,5.694,6.91,11.945,13.51,11.945H628V429z"
				/>
		</g>
	</g>
	<g>
		<g>
			<path fill="#3376D2" d="M595,408h45.69c19.547,0,35.31,14.457,35.31,32.242v16.359C676,474.341,660.237,489,640.69,489H483.929
				l0.037-22.74l156.819,0.079c6.603,0,11.215-2.91,11.215-8.567v-16.358c0-5.694-4.708-12.414-11.31-12.414H595V408z"/>
		</g>
	</g>
	<g>
		<g>
			<defs>
				<path id="SVGID_1_" d="M253,462.974C253,477.348,241.347,489,226.972,489h-87.943C124.653,489,113,477.348,113,462.974v-87.947
					C113,360.652,124.653,349,139.028,349h87.943C241.347,349,253,360.652,253,375.026V462.974z"/>
			</defs>
			<clipPath id="SVGID_2_">
				<use xlink:href="#SVGID_1_"  overflow="visible"/>
			</clipPath>
			<g clip-path="url(#SVGID_2_)">
				<defs>
					<rect id="SVGID_3_" x="108.066" y="271.685" width="150.257" height="221.807"/>
				</defs>
				<clipPath id="SVGID_4_">
					<use xlink:href="#SVGID_3_"  overflow="visible"/>
				</clipPath>
				<g clip-path="url(#SVGID_4_)">
					<defs>
						<rect id="SVGID_5_" x="108.066" y="271.685" width="150.257" height="221.807"/>
					</defs>
					<clipPath id="SVGID_6_">
						<use xlink:href="#SVGID_5_"  overflow="visible"/>
					</clipPath>
					<g clip-path="url(#SVGID_6_)">
						<defs>
							<rect id="SVGID_7_" x="-82.522" y="271.685" width="150.26" height="221.59"/>
						</defs>
						<clipPath id="SVGID_8_">
							<use xlink:href="#SVGID_7_"  overflow="visible"/>
						</clipPath>
						<g opacity="0.44" clip-path="url(#SVGID_8_)">
							<g>
								<defs>
									<rect id="SVGID_9_" x="-43.224" y="310.146" width="285.747" height="121.289"/>
								</defs>
								<clipPath id="SVGID_10_">
									<use xlink:href="#SVGID_9_"  overflow="visible"/>
								</clipPath>
								<path clip-path="url(#SVGID_10_)" fill="#009CD9" d="M-43.089,431.435l-0.135-54.374
									c0.273-35.559,29.9-66.915,65.757-66.915h219.99V343.8c0,2.662-2.216,4.869-4.866,4.869h-95.135H20.766
									c-14.613,0-26.12,11.512-26.12,30.2v52.432L-43.089,431.435z"/>
							</g>
						</g>
						<g opacity="0.73" clip-path="url(#SVGID_8_)">
							<g>
								<defs>
									<rect id="SVGID_11_" x="14.957" y="431.163" width="105.561" height="105.562"/>
								</defs>
								<clipPath id="SVGID_12_">
									<use xlink:href="#SVGID_11_"  overflow="visible"/>
								</clipPath>
								<path clip-path="url(#SVGID_12_)" fill="#009CD9" d="M118.791,470.608c7.366,28.196-9.519,57.026-37.72,64.392
									c-28.196,7.366-57.025-9.524-64.39-37.718c-7.366-28.198,9.521-57.027,37.719-64.393
									C82.598,425.522,111.426,442.411,118.791,470.608"/>
							</g>
						</g>
						<g opacity="0.53" clip-path="url(#SVGID_8_)">
							<g>
								<defs>
									<rect id="SVGID_13_" x="-43.224" y="261.818" width="188.432" height="222.126"/>
								</defs>
								<clipPath id="SVGID_14_">
									<use xlink:href="#SVGID_13_"  overflow="visible"/>
								</clipPath>
								<path clip-path="url(#SVGID_14_)" fill="#009CD9" d="M-9.526,261.818c2.659,0,4.878,2.216,4.878,4.877v154.293
									c0,14.626,11.523,24.48,26.159,24.48h58.524c14.631,0,26.605-9.854,26.605-24.48V266.695c0-2.661,2.213-4.877,4.877-4.877
									h33.69v157.396c0,35.912-29.256,64.73-65.173,64.73H21.511c-35.919,0-64.734-28.818-64.734-64.73V261.818H-9.526z"/>
							</g>
						</g>
					</g>
				</g>
				<rect x="108.066" y="271.685" clip-path="url(#SVGID_4_)" fill="#2DC974" width="150.257" height="221.807"/>
				<g clip-path="url(#SVGID_4_)">
					<defs>
						<rect id="SVGID_15_" x="108.066" y="271.685" width="150.257" height="221.807"/>
					</defs>
					<clipPath id="SVGID_16_">
						<use xlink:href="#SVGID_15_"  overflow="visible"/>
					</clipPath>
					<g opacity="0.41" clip-path="url(#SVGID_16_)">
						<g>
							<defs>
								<rect id="SVGID_17_" x="108.027" y="237.239" width="240.279" height="234.698"/>
							</defs>
							<clipPath id="SVGID_18_">
								<use xlink:href="#SVGID_17_"  overflow="visible"/>
							</clipPath>
							<path clip-path="url(#SVGID_18_)" fill="#B3FA77" d="M148.113,337.042v1.94v62.865c0,15.846,12.48,28.323,28.319,28.323
								h103.696c15.846,0,28.328-12.477,28.328-28.323v-82.567l0.3-82.04h39.55v164.607c0,38.414-31.209,70.091-70.096,70.091
								h-99.857c-38.882,0-70.092-31.677-70.092-70.091v-55.205c0-14.886-0.234-75.347-0.234-75.347l40.271-0.299L148.113,337.042z"
								/>
						</g>
					</g>
					<g clip-path="url(#SVGID_16_)">
						<g>
							<defs>
								<rect id="SVGID_19_" x="162.447" y="272.15" width="240.283" height="234.697"/>
							</defs>
							<clipPath id="SVGID_20_">
								<use xlink:href="#SVGID_19_"  overflow="visible"/>
							</clipPath>
							<path clip-path="url(#SVGID_20_)" fill="#3CECBA" d="M362.643,407.042v-1.939v-62.866c0-15.842-12.482-28.321-28.324-28.321
								H230.623c-15.843,0-28.328,12.479-28.328,28.321v82.571l-0.3,82.039h-39.548v-164.61c0-38.41,31.207-70.091,70.096-70.091
								h99.858c38.882,0,70.087,31.682,70.087,70.091v55.207c0,14.886,0.242,75.345,0.242,75.345l-40.277,0.303L362.643,407.042z"/>
						</g>
					</g>
					<g clip-path="url(#SVGID_16_)">
						<g>
							<defs>
								<rect id="SVGID_21_" x="95.058" y="295.31" width="163.333" height="134.738"/>
							</defs>
							<clipPath id="SVGID_22_">
								<use xlink:href="#SVGID_21_"  overflow="visible"/>
							</clipPath>
							<g clip-path="url(#SVGID_22_)">
								<path fill="#3CECBA" d="M184.444,446.444H95.058V375.49h89.387c6.202,0,11.886-1.836,15.591-5.041
									c3.405-2.943,3.797-5.844,3.797-7.771c0-1.923-0.392-4.825-3.797-7.767c-3.705-3.207-9.389-5.044-15.591-5.044h-76.378
									v-70.951h76.378c50.657,0,90.339,36.792,90.339,83.762C274.783,409.65,235.102,446.444,184.444,446.444z"/>
							</g>
						</g>
					</g>
				</g>
				<g clip-path="url(#SVGID_4_)">
					<defs>
						<rect id="SVGID_23_" x="108.066" y="271.685" width="150.257" height="221.807"/>
					</defs>
					<clipPath id="SVGID_24_">
						<use xlink:href="#SVGID_23_"  overflow="visible"/>
					</clipPath>
				</g>
			</g>
		</g>
		<g>
			<path fill="#FFFFFF" d="M183.088,475.091l-7.829-6.451c-3.376-2.777-4.057-7.593-1.578-11.197l2.869-4.18l-2.191-6.202
				l-2.721-0.666c-2.454-0.591-4.422-2.47-5.136-4.898l-2.867-9.756l-1.973-6.92c-0.157-0.557-0.583-1.002-1.135-1.193l-6.499-2.238
				l-13.202-7.362l-4.126-0.111l-6.339-13.991l9.597-9.248v-8.542l-27.311,0.125l-0.022-5.371l27.333-0.127v-28.527h5.373v27.399
				c0.621,0.068,1.237,0.232,1.833,0.499l1.315,0.584c0.547,0.244,1.168,0.197,1.667-0.125l0.039-1.459
				c0.079-2.718,1.858-5.11,4.427-5.961l5.816-1.938c2.835-0.944,5.927,0.38,7.193,3.083l2.134,4.545l11.549-2.071
				c0.48-0.087,0.915-0.324,1.253-0.684c0.327-0.345,0.704-0.734,1.086-1.128c1.166-1.2,2.784-1.782,4.446-1.599
				c1.663,0.182,3.118,1.106,3.992,2.533c3.226,5.252,3.226,5.252,3.292,6.033c0.05,0.508-0.059,0.912-0.221,1.521
				c-0.138,0.521,0.171,1.057,0.692,1.197c24.319,6.521,24.839,6.666,25.318,6.973l11.24,6.89c2.015,1.235,3.328,3.379,3.509,5.739
				l0.473,6.271c0.162,2.116-0.543,4.249-1.934,5.85l-9.264,10.643c-0.89,3.647-3.856,15.348-5.978,18.357l-0.223,0.318
				l-11.254,8.929l-9.776,1.882l-0.247,4.524c-0.095,1.696-0.686,3.307-1.714,4.656c-9.847,12.953-9.847,12.953-11.078,13.238
				l-0.053,0.009c-0.255,0.053-0.534,0.077-0.728,0.09L183.088,475.091z M176.919,442.155c0.577,0.128,1.113,0.447,1.521,0.91
				l0.343,0.39l3.744,10.591l-4.417,6.437c-0.887,1.291-0.646,3.014,0.563,4.007l5.14,4.237c1.398-1.774,3.925-5.047,7.908-10.285
				c0.374-0.492,0.592-1.08,0.625-1.7l0.482-8.712l12.596-2.426l9.566-7.587c1.182-2.117,3.489-10.045,5.131-16.887l0.154-0.639
				l10.121-11.632c0.463-0.531,0.688-1.213,0.636-1.916l-0.479-6.273c-0.048-0.643-0.406-1.228-0.957-1.563l-10.973-6.729
				c-1.99-0.566-13.63-3.704-24.169-6.529c-3.209-0.86-5.19-4.048-4.605-7.263c-0.461-0.778-1.265-2.107-2.345-3.864
				c-0.371,0.371-0.729,0.742-1.038,1.072c-1.134,1.199-2.593,1.989-4.212,2.28l-15.614,2.804l-3.881-8.282
				c-0.109-0.236-0.381-0.353-0.631-0.271l-5.821,1.94c-0.438,0.144-0.736,0.552-0.75,1.012l-0.041,1.514
				c-0.055,1.681-0.904,3.241-2.273,4.19c-2.071,1.419-4.667,1.657-6.948,0.642l-0.964-0.43v11.765l-8.512,8.2l3.389,7.475
				l2.083,0.057l13.936,7.772l6.05,2.082c2.212,0.761,3.913,2.557,4.552,4.8l1.966,6.903l2.862,9.732
				c0.175,0.592,0.654,1.05,1.25,1.191L176.919,442.155z"/>
		</g>
	</g>
</g>
<g>
	<g>
		<path fill="#284EB7" d="M2747.785,349.247c1.684,0,3.084,1.402,3.084,3.085v97.628c0,9.255,7.297,15.489,16.552,15.489h37.032
			c9.259,0,16.832-6.234,16.832-15.489v-97.628c0-1.683,1.406-3.085,3.089-3.085h21.317v99.588c0,22.725-18.511,40.96-41.238,40.96
			h-37.032c-22.726,0-40.96-18.235-40.96-40.96v-99.588H2747.785z"/>
	</g>
	<g>
		<path fill="#284EB7" d="M2067.726,388.624v91.901c0,5.042-3.922,8.965-8.964,8.965h-3.087h-0.915h-11.408
			c0,0,0.281-91.901,0.281-93.582v-7.01c0-8.958-5.886-16.524-16.812-16.524h-55.758c-1.677,0-3.081-1.401-3.081-3.084v-19.892
			h58.839C2049.514,349.399,2067.726,363.127,2067.726,388.624z"/>
	</g>
	<g>
		<path fill="#284EB7" d="M2554.854,388.624v91.901c0,5.042-3.922,8.965-8.967,8.965h-3.084h-12.333c0,0,0.281-91.901,0.281-93.582
			v-7.01c0-8.958-5.884-16.524-16.806-16.524h-55.758c-1.684,0-3.08-1.401-3.08-3.084v-19.892h58.838
			C2536.64,349.399,2554.854,363.127,2554.854,388.624z"/>
	</g>
	<g>
		<path fill="#284EB7" d="M2615.27,349.224h92.137v19.892c0,1.685-1.458,3.087-3.137,3.087h-89
			c-10.928,0-16.812,7.561-16.812,16.524v7.008c0,1.681,0.28,93.582,0.28,93.582h-12.327h-3.084c-5.048,0-8.966-3.92-8.966-8.965
			v-91.902C2574.361,362.956,2592.57,349.224,2615.27,349.224z"/>
	</g>
	<g>
		<path fill="#3376D2" d="M2112.348,465.843l-0.172,23.538l-68.824,0.109h-50.15c-22.698,0-40.91-18.212-40.91-40.907v-8.684
			c0-22.698,18.212-40.905,40.91-40.905h47.346c1.684,0,27.179-0.236,27.179-0.236v23.683l-24.093-0.361
			c-4.204-0.113-50.432,0.167-50.432,0.167c-9.246,0-16.535,7.284-16.535,16.527v10.369c0,9.242,7.289,16.53,16.535,16.53h47.629
			C2042.51,465.673,2112.348,465.843,2112.348,465.843z"/>
	</g>
	<g>
		<path fill="#3376D2" d="M2598.696,465.562l-0.039,23.929h-68.188h-50.151c-22.693,0-40.904-18.212-40.904-40.907v-8.684
			c0-22.698,18.211-40.905,40.904-40.905h47.355c1.679,0,27.18-0.236,27.18-0.236v23.683l-24.103-0.361
			c-4.203-0.113-50.433,0.167-50.433,0.167c-9.247,0-16.525,7.284-16.525,16.527v10.369c0,9.242,7.278,16.53,16.525,16.53h47.634
			C2529.633,465.673,2598.696,465.562,2598.696,465.562z"/>
	</g>
	<g>
		<path fill="#284EB7" d="M2341.629,349.431l93.793-0.141l0.01,20.216c0,1.687-1.394,2.823-3.058,2.823l-90.699,0.021
			L2341.629,349.431z"/>
	</g>
	<g>
		<path fill="#3376D2" d="M2112.168,489.314l-15.637,0.066c-5.041,0-8.965-3.921-8.965-8.963V279.244h21.289
			c1.688,0,3.09,1.403,3.09,3.083L2112.168,489.314z"/>
	</g>
	<g>
		<path fill="#284EB7" d="M2903.918,466.104h1.131h36.691c9.245,0,16.527-7.286,16.527-16.53v-60.517
			c0-9.249-7.282-16.534-16.527-16.534h-48.191l-47.88-0.174v-23.083h96.071c22.414,0,40.904,18.213,40.904,40.911v58.279
			c0,22.691-18.49,40.905-40.904,40.905h-32.222c-8.686,0-43.973,0.139-43.973,0.139l-0.174-23.506L2903.918,466.104z"/>
	</g>
	<g>
		<path fill="#3376D2" d="M2889.611,556.479c0,1.678-1.396,3.078-3.08,3.078h-21.291V358.389c0-5.043,3.927-9.122,8.965-9.122
			h15.315L2889.611,556.479z"/>
	</g>
	<g>
		<path fill="#284EB7" d="M2087.459,372.765l0.042-23.507c0,0,35.575,0.141,44.257,0.141h32.224
			c22.417,0,40.908,18.216,40.908,40.902v58.282c0,22.695-18.491,40.907-40.908,40.907h-66.681c-5.043,0-9.82-3.923-9.82-8.965
			v-14.303l28.316,0.012h48.185c9.251,0,16.535-7.285,16.535-16.533v-60.513c0-9.248-7.284-16.539-16.535-16.539h-36.688h-1.133
			L2087.459,372.765z"/>
	</g>
	<path fill="#C48B8B" d="M2330.299,408.913"/>
	<g>
		<g>
			<path fill="#284EB7" d="M2006.165,557.994h-3.023c-0.331,0-0.588-0.222-0.661-0.478l-2.47-7.112h-14.077l-2.47,7.112
				c-0.071,0.256-0.367,0.478-0.659,0.478h-3.025l8.993-25.607c0.442-1.218,1.583-2.064,2.91-2.064h4.387
				c0.183,0,0.366,0.11,0.441,0.257L2006.165,557.994z M1998.906,547.236l-4.793-13.746h-1.803c-0.297,0-0.555,0.184-0.663,0.479
				l-4.607,13.267H1998.906z"/>
			<path fill="#284EB7" d="M2006.371,558.142h-3.229c-0.376,0-0.704-0.241-0.804-0.586l-2.433-7.006h-13.866l-2.435,7.014
				c-0.093,0.322-0.446,0.578-0.8,0.578h-3.231l0.069-0.196l8.99-25.606c0.471-1.297,1.697-2.164,3.05-2.164h4.387
				c0.235,0,0.471,0.14,0.571,0.338L2006.371,558.142z M1985.829,550.257h14.286l2.502,7.213c0.057,0.191,0.253,0.378,0.524,0.378
				h2.815l-9.586-27.22c-0.042-0.081-0.179-0.159-0.302-0.159h-4.387c-1.231,0-2.345,0.791-2.773,1.968l-8.922,25.411h2.817
				c0.219,0,0.465-0.172,0.521-0.371L1985.829,550.257z M1999.11,547.383h-12.276l4.673-13.462c0.133-0.353,0.447-0.577,0.804-0.577
				h1.908L1999.11,547.383z M1987.246,547.09h11.453l-4.688-13.453h-1.7c-0.236,0-0.438,0.149-0.527,0.386L1987.246,547.09z"/>
		</g>
		<g>
			<path fill="#284EB7" d="M2026.168,554.826c1.548,0,2.729-1.252,2.729-2.8v-3.354c0-0.367-0.296-0.772-0.663-0.885l-14.15-4.716
				c-1.106-0.367-2.029-1.622-2.029-2.801v-4.386c0-3.464,2.801-5.563,6.267-5.563h13.117v2.689c0,0.258-0.183,0.479-0.479,0.479
				h-12.638c-1.549,0-2.838,0.995-2.838,2.543v3.574c0,0.405,0.296,0.811,0.664,0.923l14.15,4.678
				c1.104,0.369,1.913,1.659,1.913,2.838v3.943c0,3.464-2.616,6.005-6.042,6.005h-14.114v-2.689c0-0.294,0.224-0.479,0.48-0.479
				H2026.168z"/>
			<path fill="#284EB7" d="M2026.168,558.142h-14.258v-2.837c0-0.355,0.267-0.624,0.624-0.624h13.634c1.447,0,2.58-1.166,2.58-2.654
				v-3.354c0-0.311-0.257-0.652-0.559-0.742l-14.154-4.72c-1.171-0.39-2.125-1.71-2.125-2.939v-4.386c0-3.36,2.636-5.71,6.41-5.71
				h13.263v2.837c0,0.356-0.267,0.625-0.625,0.625h-12.638c-1.56,0-2.691,1.008-2.691,2.396v3.574c0,0.339,0.249,0.69,0.561,0.779
				l14.15,4.684c1.131,0.378,2.019,1.684,2.019,2.976v3.943C2032.358,555.496,2029.697,558.142,2026.168,558.142z M2012.2,557.848
				h13.968c3.362,0,5.896-2.518,5.896-5.858v-3.943c0-1.155-0.814-2.366-1.816-2.699l-14.146-4.678
				c-0.429-0.128-0.767-0.595-0.767-1.062v-3.574c0-1.558,1.257-2.689,2.985-2.689h12.638c0.229,0,0.333-0.17,0.333-0.332v-2.543
				h-12.971c-3.602,0-6.12,2.227-6.12,5.416v4.386c0,1.114,0.866,2.308,1.928,2.661l14.148,4.716
				c0.42,0.128,0.767,0.589,0.767,1.024v3.354c0,1.652-1.264,2.946-2.875,2.946h-13.634c-0.161,0-0.334,0.104-0.334,0.332V557.848z"
				/>
		</g>
		<g>
			<path fill="#284EB7" d="M2053.285,554.826c1.549,0,2.728-1.252,2.728-2.8v-3.354c0-0.367-0.294-0.772-0.664-0.885l-14.149-4.716
				c-1.105-0.367-2.027-1.622-2.027-2.801v-4.386c0-3.464,2.803-5.563,6.266-5.563h13.118v2.689c0,0.258-0.183,0.479-0.479,0.479
				h-12.639c-1.55,0-2.84,0.995-2.84,2.543v3.574c0,0.405,0.296,0.811,0.666,0.923l14.148,4.678
				c1.104,0.369,1.915,1.659,1.915,2.838v3.943c0,3.464-2.614,6.005-6.042,6.005h-14.113v-2.689c0-0.294,0.221-0.479,0.479-0.479
				H2053.285z"/>
			<path fill="#284EB7" d="M2053.285,558.142h-14.26v-2.837c0-0.355,0.27-0.624,0.626-0.624h13.634c1.446,0,2.579-1.166,2.579-2.654
				v-3.354c0-0.311-0.255-0.652-0.559-0.742l-14.154-4.72c-1.172-0.39-2.126-1.71-2.126-2.939v-4.386c0-3.36,2.637-5.71,6.412-5.71
				h13.265v2.837c0,0.356-0.268,0.625-0.626,0.625h-12.639c-1.562,0-2.691,1.008-2.691,2.396v3.574c0,0.339,0.251,0.69,0.559,0.779
				l14.154,4.684c1.131,0.378,2.016,1.684,2.016,2.976v3.943C2059.475,555.496,2056.814,558.142,2053.285,558.142z M2039.32,557.848
				h13.965c3.362,0,5.895-2.518,5.895-5.858v-3.943c0-1.155-0.812-2.366-1.814-2.699l-14.148-4.678
				c-0.428-0.128-0.764-0.595-0.764-1.062v-3.574c0-1.558,1.255-2.689,2.984-2.689h12.639c0.229,0,0.333-0.17,0.333-0.332v-2.543
				h-12.972c-3.604,0-6.117,2.227-6.117,5.416v4.386c0,1.114,0.864,2.308,1.927,2.661l14.148,4.716
				c0.42,0.128,0.763,0.589,0.763,1.024v3.354c0,1.652-1.261,2.946-2.873,2.946h-13.634c-0.159,0-0.331,0.104-0.331,0.332V557.848z"
				/>
		</g>
		<g>
			<path fill="#284EB7" d="M2073.179,558.143c-3.463,0-6.266-2.802-6.266-6.265v-15.438c0-3.464,2.803-6.265,6.266-6.265h8.326
				c3.428,0,6.266,2.801,6.266,6.265v15.438c0,3.463-2.838,6.265-6.266,6.265H2073.179z M2070.378,536.145v16.028
				c0,1.548,1.253,2.8,2.801,2.8h8.326c1.55,0,2.804-1.252,2.804-2.8v-16.028c0-1.549-1.254-2.801-2.804-2.801h-8.326
				C2071.631,533.344,2070.378,534.596,2070.378,536.145z"/>
			<path fill="#284EB7" d="M2081.505,558.288h-8.326c-3.535,0-6.409-2.874-6.409-6.41v-15.438c0-3.535,2.874-6.411,6.409-6.411
				h8.326c3.536,0,6.413,2.876,6.413,6.411v15.438C2087.918,555.414,2085.041,558.288,2081.505,558.288z M2073.179,530.32
				c-3.372,0-6.117,2.744-6.117,6.119v15.438c0,3.375,2.745,6.118,6.117,6.118h8.326c3.374,0,6.119-2.743,6.119-6.118v-15.438
				c0-3.375-2.745-6.119-6.119-6.119H2073.179z M2081.505,555.121h-8.326c-1.625,0-2.946-1.321-2.946-2.948v-16.028
				c0-1.623,1.321-2.946,2.946-2.946h8.326c1.627,0,2.947,1.323,2.947,2.946v16.028
				C2084.452,553.8,2083.132,555.121,2081.505,555.121z M2073.179,533.49c-1.461,0-2.653,1.191-2.653,2.654v16.028
				c0,1.464,1.192,2.653,2.653,2.653h8.326c1.465,0,2.657-1.189,2.657-2.653v-16.028c0-1.463-1.192-2.654-2.657-2.654H2073.179z"/>
		</g>
		<g>
			<path fill="#284EB7" d="M2095.873,536.587c0-3.464,2.8-6.265,6.266-6.265h12.16v2.689c0,0.258-0.222,0.479-0.479,0.479h-11.681
				c-1.548,0-2.803,1.255-2.803,2.803v15.733c0,1.548,1.255,2.8,2.803,2.8h11.681c0.258,0,0.479,0.222,0.479,0.479v2.689h-12.16
				c-3.466,0-6.266-2.835-6.266-6.264V536.587z"/>
			<path fill="#284EB7" d="M2114.445,558.142h-12.307c-3.537,0-6.412-2.876-6.412-6.411v-15.144c0-3.536,2.875-6.412,6.412-6.412
				h12.307v2.837c0,0.34-0.287,0.625-0.626,0.625h-11.681c-1.464,0-2.654,1.19-2.654,2.656v15.733c0,1.463,1.19,2.654,2.654,2.654
				h11.681c0.339,0,0.626,0.285,0.626,0.624V558.142z M2102.139,530.469c-3.373,0-6.12,2.744-6.12,6.118v15.144
				c0,3.374,2.747,6.117,6.12,6.117h12.013v-2.543c0-0.176-0.154-0.332-0.332-0.332h-11.681c-1.626,0-2.946-1.323-2.946-2.946
				v-15.733c0-1.626,1.32-2.949,2.946-2.949h11.681c0.178,0,0.332-0.156,0.332-0.332v-2.543H2102.139z"/>
		</g>
		<g>
			<path fill="#284EB7" d="M2122.771,557.517v-27.194h2.984c0.261,0,0.479,0.222,0.479,0.479v27.192h-2.983
				C2122.99,557.994,2122.771,557.772,2122.771,557.517z"/>
			<path fill="#284EB7" d="M2126.383,558.142h-3.132c-0.34,0-0.629-0.286-0.629-0.625v-27.342h3.133
				c0.339,0,0.628,0.287,0.628,0.627V558.142z M2122.916,530.469v27.048c0,0.178,0.157,0.331,0.335,0.331h2.837v-27.046
				c0-0.178-0.155-0.333-0.333-0.333H2122.916z"/>
		</g>
		<g>
			<path fill="#284EB7" d="M2159.58,557.994h-3.021c-0.331,0-0.588-0.222-0.663-0.478l-2.468-7.112h-14.077l-2.47,7.112
				c-0.072,0.256-0.368,0.478-0.662,0.478h-3.023l8.993-25.607c0.441-1.218,1.584-2.064,2.911-2.064h4.381
				c0.188,0,0.372,0.11,0.447,0.257L2159.58,557.994z M2152.322,547.236l-4.792-13.746h-1.806c-0.295,0-0.552,0.184-0.663,0.479
				l-4.606,13.267H2152.322z"/>
			<path fill="#284EB7" d="M2159.788,558.142h-3.229c-0.376,0-0.707-0.241-0.805-0.586l-2.432-7.006h-13.866l-2.436,7.014
				c-0.091,0.322-0.445,0.578-0.802,0.578h-3.228l0.065-0.196l8.992-25.606c0.472-1.297,1.697-2.164,3.051-2.164h4.381
				c0.241,0,0.477,0.14,0.576,0.338L2159.788,558.142z M2139.246,550.257h14.284l2.504,7.213c0.056,0.191,0.251,0.378,0.524,0.378
				h2.814l-9.582-27.22c-0.046-0.081-0.183-0.159-0.311-0.159h-4.381c-1.229,0-2.347,0.791-2.774,1.968l-8.922,25.411h2.815
				c0.223,0,0.465-0.172,0.521-0.371L2139.246,550.257z M2152.527,547.383h-12.276l4.673-13.462
				c0.131-0.353,0.445-0.577,0.801-0.577h1.911L2152.527,547.383z M2140.662,547.09h11.452l-4.687-13.453h-1.703
				c-0.235,0-0.438,0.149-0.524,0.386L2140.662,547.09z"/>
		</g>
		<g>
			<path fill="#284EB7" d="M2165.951,536.587c0-3.464,2.801-6.265,6.261-6.265h12.161v2.689c0,0.258-0.219,0.479-0.477,0.479
				h-11.685c-1.545,0-2.798,1.255-2.798,2.803v15.733c0,1.548,1.253,2.8,2.798,2.8h11.685c0.258,0,0.477,0.222,0.477,0.479v2.689
				h-6.89l-0.515,1.808h1.399c1.253,0,2.284,1.03,2.284,2.319v1.365c0,1.252-1.031,2.284-2.284,2.284h-5.415v-1.475
				c0-0.442,0.367-0.81,0.773-0.81h4.312c0.185,0,0.33-0.113,0.33-0.296v-1.069c0-0.183-0.146-0.331-0.33-0.331h-3.76l1.032-3.796
				h-3.099c-3.46,0-6.261-2.835-6.261-6.264V536.587z"/>
			<path fill="#284EB7" d="M2178.368,565.919h-5.563v-1.623c0-0.51,0.43-0.956,0.922-0.956h4.312c0.03,0,0.185-0.008,0.185-0.149
				v-1.069c0-0.103-0.08-0.183-0.185-0.183h-3.951l1.03-3.797h-2.905c-3.532,0-6.409-2.876-6.409-6.411v-15.144
				c0-3.536,2.877-6.412,6.409-6.412h12.31v2.837c0,0.34-0.287,0.625-0.625,0.625h-11.685c-1.46,0-2.649,1.19-2.649,2.656v15.733
				c0,1.463,1.189,2.654,2.649,2.654h11.685c0.338,0,0.625,0.285,0.625,0.624v2.837h-6.926l-0.436,1.512h1.208
				c1.34,0,2.433,1.107,2.433,2.468v1.365C2180.801,564.826,2179.708,565.919,2178.368,565.919z M2173.1,565.622h5.269
				c1.179,0,2.136-0.956,2.136-2.136v-1.365c0-1.199-0.957-2.174-2.136-2.174h-1.594l0.601-2.1h6.854v-2.543
				c0-0.176-0.155-0.332-0.333-0.332h-11.685c-1.622,0-2.944-1.323-2.944-2.946v-15.733c0-1.626,1.322-2.949,2.944-2.949h11.685
				c0.178,0,0.333-0.156,0.333-0.332v-2.543h-12.018c-3.371,0-6.114,2.744-6.114,6.118v15.144c0,3.374,2.743,6.117,6.114,6.117h3.29
				l-1.03,3.797h3.566c0.263,0,0.479,0.215,0.479,0.477v1.069c0,0.256-0.205,0.442-0.479,0.442h-4.312
				c-0.335,0-0.627,0.311-0.627,0.663V565.622z"/>
		</g>
		<g>
			<path fill="#284EB7" d="M2216.539,557.994h-3.021c-0.332,0-0.588-0.222-0.663-0.478l-2.467-7.112h-14.077l-2.47,7.112
				c-0.073,0.256-0.369,0.478-0.663,0.478h-3.021l8.99-25.607c0.442-1.218,1.584-2.064,2.91-2.064h4.387
				c0.183,0,0.367,0.11,0.442,0.257L2216.539,557.994z M2209.28,547.236l-4.788-13.746h-1.807c-0.297,0-0.553,0.184-0.662,0.479
				l-4.606,13.267H2209.28z M2200.365,527.705h-1.512v-2.688c0-0.7,0.591-1.29,1.325-1.29h1.551c0.329,0,0.848,0.146,1.104,0.294
				c0.148,0.113,2.025,1.252,2.025,1.252c0.113,0.075,0.335,0.147,0.48,0.147h0.259c0.221,0,0.405-0.185,0.405-0.403v-0.7
				c0-0.333,0.258-0.59,0.591-0.59h1.51v2.689c0,0.701-0.591,1.289-1.327,1.289h-1.583c-0.335,0-0.812-0.147-1.071-0.295
				c-0.183-0.109-2.025-1.253-2.025-1.253c-0.148-0.073-0.367-0.146-0.518-0.146h-0.222c-0.219,0-0.401,0.185-0.401,0.405v0.701
				C2200.956,527.447,2200.698,527.705,2200.365,527.705z"/>
			<path fill="#284EB7" d="M2216.748,558.142h-3.229c-0.375,0-0.704-0.241-0.804-0.586l-2.432-7.006h-13.869l-2.434,7.014
				c-0.092,0.322-0.444,0.578-0.802,0.578h-3.228l0.066-0.196l8.994-25.606c0.469-1.297,1.694-2.164,3.047-2.164h4.387
				c0.235,0,0.472,0.14,0.572,0.338L2216.748,558.142z M2196.207,550.257h14.286l2.503,7.213c0.054,0.191,0.251,0.378,0.522,0.378
				h2.815l-9.586-27.22c-0.041-0.081-0.18-0.159-0.303-0.159h-4.387c-1.229,0-2.345,0.791-2.773,1.968l-8.922,25.411h2.815
				c0.223,0,0.467-0.172,0.523-0.371L2196.207,550.257z M2209.488,547.383h-12.278l4.675-13.462c0.13-0.353,0.444-0.577,0.801-0.577
				h1.91L2209.488,547.383z M2197.62,547.09h11.456l-4.689-13.453h-1.701c-0.236,0-0.438,0.149-0.525,0.386L2197.62,547.09z
				 M2206.776,527.852h-1.583c-0.371,0-0.874-0.16-1.143-0.314c-0.187-0.11-2.031-1.254-2.031-1.254
				c-0.14-0.069-0.334-0.126-0.44-0.126h-0.222c-0.141,0-0.258,0.118-0.258,0.259v0.701c0,0.412-0.323,0.734-0.734,0.734h-1.657
				v-2.835c0-0.791,0.659-1.438,1.471-1.438h1.551c0.376,0,0.91,0.165,1.177,0.314c0.12,0.09,1.276,0.799,2.031,1.256
				c0.089,0.06,0.281,0.123,0.401,0.123h0.259c0.141,0,0.259-0.115,0.259-0.256v-0.7c0-0.413,0.322-0.737,0.737-0.737h1.656v2.837
				C2208.25,527.208,2207.586,527.852,2206.776,527.852z M2201.357,525.865h0.222c0.175,0,0.418,0.08,0.583,0.161
				c0.012,0.008,1.852,1.147,2.034,1.26c0.232,0.132,0.689,0.273,0.997,0.273h1.583c0.652,0,1.179-0.514,1.179-1.144v-2.543h-1.361
				c-0.254,0-0.445,0.189-0.445,0.443v0.7c0,0.304-0.246,0.55-0.551,0.55h-0.259c-0.186,0-0.435-0.087-0.561-0.169
				c-0.187-0.114-1.884-1.147-2.034-1.261c-0.21-0.119-0.7-0.264-1.015-0.264h-1.551c-0.649,0-1.181,0.512-1.181,1.144v2.543h1.367
				c0.251,0,0.442-0.191,0.442-0.442v-0.701C2200.808,526.111,2201.055,525.865,2201.357,525.865z"/>
		</g>
		<g>
			<path fill="#284EB7" d="M2229.691,558.143c-3.466,0-6.266-2.802-6.266-6.265v-15.438c0-3.464,2.8-6.265,6.266-6.265h8.328
				c3.426,0,6.263,2.801,6.263,6.265v15.438c0,3.463-2.837,6.265-6.263,6.265H2229.691z M2226.89,536.145v16.028
				c0,1.548,1.254,2.8,2.802,2.8h8.328c1.546,0,2.801-1.252,2.801-2.8v-16.028c0-1.549-1.255-2.801-2.801-2.801h-8.328
				C2228.144,533.344,2226.89,534.596,2226.89,536.145z"/>
			<path fill="#284EB7" d="M2238.02,558.288h-8.328c-3.536,0-6.412-2.874-6.412-6.41v-15.438c0-3.535,2.876-6.411,6.412-6.411h8.328
				c3.533,0,6.409,2.876,6.409,6.411v15.438C2244.429,555.414,2241.553,558.288,2238.02,558.288z M2229.691,530.32
				c-3.373,0-6.119,2.744-6.119,6.119v15.438c0,3.375,2.746,6.118,6.119,6.118h8.328c3.371,0,6.117-2.743,6.117-6.118v-15.438
				c0-3.375-2.746-6.119-6.117-6.119H2229.691z M2238.02,555.121h-8.328c-1.625,0-2.948-1.321-2.948-2.948v-16.028
				c0-1.623,1.323-2.946,2.948-2.946h8.328c1.623,0,2.946,1.323,2.946,2.946v16.028
				C2240.966,553.8,2239.643,555.121,2238.02,555.121z M2229.691,533.49c-1.464,0-2.654,1.191-2.654,2.654v16.028
				c0,1.464,1.19,2.653,2.654,2.653h8.328c1.463,0,2.654-1.189,2.654-2.653v-16.028c0-1.463-1.191-2.654-2.654-2.654H2229.691z"/>
		</g>
		<g>
			<path fill="#284EB7" d="M2270.145,555.857v-23.471c0-1.143,0.921-2.064,2.063-2.064h0.591H2284c3.464,0,6.264,2.801,6.264,6.265
				v2.799c0,1.77-1.401,4.128-3.389,4.533c1.987,0.518,3.389,2.762,3.389,4.531v3.243c0,3.466-2.8,6.301-6.264,6.301h-11.719
				C2271.104,557.994,2270.145,557.036,2270.145,555.857z M2273.606,542.334H2284c1.548,0,2.8-1.254,2.8-2.8v-3.241
				c0-1.548-1.252-2.803-2.8-2.803h-9.69c-0.407,0-0.703,0.296-0.703,0.7V542.334z M2286.8,548.305c0-1.549-1.252-2.803-2.8-2.803
				h-10.394v8.624c0,0.367,0.296,0.7,0.703,0.7h9.69c1.548,0,2.8-1.289,2.8-2.837V548.305z"/>
			<path fill="#284EB7" d="M2284,558.142h-11.719c-1.26,0-2.285-1.024-2.285-2.284v-23.471c0-1.222,0.994-2.212,2.212-2.212H2284
				c3.532,0,6.41,2.876,6.41,6.412v2.799c0,1.722-1.271,3.892-3.041,4.544c1.839,0.734,3.041,2.84,3.041,4.521v3.243
				C2290.41,555.248,2287.532,558.142,2284,558.142z M2272.208,530.469c-1.059,0-1.917,0.858-1.917,1.918v23.471
				c0,1.099,0.894,1.99,1.99,1.99H2284c3.369,0,6.117-2.76,6.117-6.154v-3.243c0-1.672-1.346-3.889-3.28-4.39l-0.611-0.16
				l0.618-0.125c1.873-0.381,3.273-2.631,3.273-4.39v-2.799c0-3.374-2.748-6.118-6.117-6.118H2272.208z M2284,554.973h-9.69
				c-0.469,0-0.848-0.38-0.848-0.847v-8.769H2284c1.624,0,2.946,1.32,2.946,2.947v3.685
				C2286.946,553.636,2285.624,554.973,2284,554.973z M2273.754,545.65v8.476c0,0.306,0.248,0.555,0.556,0.555h9.69
				c1.462,0,2.655-1.209,2.655-2.691v-3.685c0-1.464-1.193-2.654-2.655-2.654H2273.754z M2284,542.48h-10.538v-8.29
				c0-0.483,0.364-0.847,0.848-0.847h9.69c1.624,0,2.946,1.323,2.946,2.949v3.241C2286.946,541.159,2285.624,542.48,2284,542.48z
				 M2273.754,542.187H2284c1.462,0,2.655-1.19,2.655-2.652v-3.241c0-1.466-1.193-2.656-2.655-2.656h-9.69
				c-0.328,0-0.556,0.228-0.556,0.554V542.187z"/>
		</g>
		<g>
			<path fill="#284EB7" d="M2301.573,544.729v12.788c0,0.256-0.222,0.478-0.48,0.478h-2.985v-25.535
				c0-1.179,0.957-2.137,2.139-2.137h11.57c3.463,0,6.262,2.174,6.262,5.933v3.573c0,3.243-2.32,5.013-5.009,5.714l5.895,12.452
				h-3.206c-0.257,0-0.553-0.222-0.662-0.442l-5.603-11.826h-4.716h-1.067c-1.031,0-1.805-0.297-2.064-0.997H2301.573z
				 M2311.816,542.554c1.546,0,2.8-1.252,2.8-2.801v-3.46c0-1.548-1.254-2.803-2.8-2.803h-9.545c-0.406,0-0.698,0.333-0.698,0.7
				v7.667c0,0.404,0.332,0.696,0.698,0.696H2311.816z"/>
			<path fill="#284EB7" d="M2319.194,558.142h-3.437c-0.331,0-0.669-0.271-0.794-0.522l-5.563-11.748h-5.691
				c-0.946,0-1.626-0.245-1.991-0.712v12.357c0,0.339-0.287,0.625-0.626,0.625h-3.132v-25.683c0-1.26,1.025-2.284,2.285-2.284h11.57
				c3.772,0,6.409,2.502,6.409,6.08v3.573c0,2.823-1.801,4.932-4.949,5.81L2319.194,558.142z M2301.425,544.582h0.319l0.039,0.097
				c0.273,0.743,1.199,0.9,1.927,0.9h5.878l5.64,11.911c0.085,0.166,0.329,0.357,0.53,0.357h2.974l-5.872-12.403l0.171-0.045
				c1.831-0.477,4.903-1.836,4.903-5.571v-3.573c0-3.462-2.459-5.786-6.117-5.786h-11.57c-1.1,0-1.991,0.892-1.991,1.99v25.389
				h2.838c0.177,0,0.332-0.153,0.332-0.331V544.582z M2311.816,542.702h-9.545c-0.468,0-0.847-0.381-0.847-0.845v-7.667
				c0-0.466,0.379-0.847,0.847-0.847h9.545c1.624,0,2.948,1.323,2.948,2.949v3.46
				C2314.765,541.381,2313.44,542.702,2311.816,542.702z M2302.271,533.637c-0.305,0-0.553,0.248-0.553,0.554v7.667
				c0,0.303,0.248,0.55,0.553,0.55h9.545c1.462,0,2.654-1.188,2.654-2.654v-3.46c0-1.466-1.192-2.656-2.654-2.656H2302.271z"/>
		</g>
		<g>
			<path fill="#284EB7" d="M2350.244,557.994h-3.022c-0.33,0-0.591-0.222-0.665-0.478l-2.468-7.112h-14.074l-2.47,7.112
				c-0.073,0.256-0.367,0.478-0.662,0.478h-3.023l8.994-25.607c0.439-1.218,1.581-2.064,2.908-2.064h4.385
				c0.183,0,0.37,0.11,0.441,0.257L2350.244,557.994z M2342.983,547.236l-4.789-13.746h-1.807c-0.294,0-0.552,0.184-0.661,0.479
				l-4.606,13.267H2342.983z"/>
			<path fill="#284EB7" d="M2350.451,558.142h-3.229c-0.375,0-0.707-0.241-0.803-0.586l-2.433-7.006h-13.869l-2.434,7.014
				c-0.091,0.322-0.444,0.578-0.801,0.578h-3.23l0.068-0.196l8.991-25.606c0.472-1.297,1.698-2.164,3.05-2.164h4.385
				c0.237,0,0.474,0.14,0.574,0.338L2350.451,558.142z M2329.91,550.257h14.284l2.504,7.213c0.053,0.191,0.251,0.378,0.523,0.378
				h2.814l-9.585-27.22c-0.043-0.081-0.18-0.159-0.305-0.159h-4.385c-1.231,0-2.345,0.791-2.771,1.968l-8.922,25.411h2.814
				c0.222,0,0.466-0.172,0.521-0.371L2329.91,550.257z M2343.189,547.383h-12.276l4.675-13.462c0.131-0.353,0.444-0.577,0.8-0.577
				h1.911L2343.189,547.383z M2331.325,547.09h11.454l-4.689-13.453h-1.702c-0.236,0-0.437,0.149-0.526,0.386L2331.325,547.09z"/>
		</g>
		<g>
			<path fill="#284EB7" d="M2370.249,554.826c1.546,0,2.727-1.252,2.727-2.8v-3.354c0-0.367-0.294-0.772-0.663-0.885l-14.148-4.716
				c-1.106-0.367-2.027-1.622-2.027-2.801v-4.386c0-3.464,2.801-5.563,6.262-5.563h13.119v2.689c0,0.258-0.182,0.479-0.48,0.479
				h-12.639c-1.546,0-2.837,0.995-2.837,2.543v3.574c0,0.405,0.296,0.811,0.664,0.923l14.15,4.678
				c1.104,0.369,1.915,1.659,1.915,2.838v3.943c0,3.464-2.614,6.005-6.042,6.005h-14.112v-2.689c0-0.294,0.221-0.479,0.477-0.479
				H2370.249z"/>
			<path fill="#284EB7" d="M2370.249,558.142h-14.261v-2.837c0-0.355,0.271-0.624,0.625-0.624h13.636c1.446,0,2.58-1.166,2.58-2.654
				v-3.354c0-0.311-0.255-0.652-0.559-0.742l-14.154-4.72c-1.173-0.39-2.128-1.71-2.128-2.939v-4.386c0-3.36,2.639-5.71,6.41-5.71
				h13.266v2.837c0,0.356-0.269,0.625-0.627,0.625h-12.639c-1.557,0-2.688,1.008-2.688,2.396v3.574c0,0.339,0.249,0.69,0.559,0.779
				l14.154,4.684c1.131,0.378,2.016,1.684,2.016,2.976v3.943C2376.438,555.496,2373.775,558.142,2370.249,558.142z
				 M2356.283,557.848h13.966c3.36,0,5.894-2.518,5.894-5.858v-3.943c0-1.155-0.812-2.366-1.813-2.699l-14.147-4.678
				c-0.428-0.128-0.764-0.595-0.764-1.062v-3.574c0-1.558,1.254-2.689,2.98-2.689h12.639c0.23,0,0.336-0.17,0.336-0.332v-2.543
				h-12.975c-3.6,0-6.115,2.227-6.115,5.416v4.386c0,1.114,0.862,2.308,1.927,2.661l14.149,4.716
				c0.42,0.128,0.762,0.589,0.762,1.024v3.354c0,1.652-1.261,2.946-2.872,2.946h-13.636c-0.157,0-0.33,0.104-0.33,0.332V557.848z"/>
		</g>
		<g>
			<path fill="#284EB7" d="M2384.689,557.517v-27.194h2.982c0.261,0,0.479,0.222,0.479,0.479v27.192h-2.981
				C2384.911,557.994,2384.689,557.772,2384.689,557.517z"/>
			<path fill="#284EB7" d="M2388.3,558.142h-3.13c-0.341,0-0.626-0.286-0.626-0.625v-27.342h3.128c0.342,0,0.628,0.287,0.628,0.627
				V558.142z M2384.835,530.469v27.048c0,0.178,0.156,0.331,0.335,0.331h2.836v-27.046c0-0.178-0.155-0.333-0.334-0.333H2384.835z"
				/>
		</g>
		<g>
			<path fill="#284EB7" d="M2396.847,551.622v-20.82c0-0.258,0.222-0.479,0.479-0.479h2.984v21.63c0,1.585,1.289,2.874,2.836,2.874
				h11.497c0.26,0,0.479,0.222,0.479,0.479v2.689h-11.977C2399.684,557.994,2396.847,555.121,2396.847,551.622z"/>
			<path fill="#284EB7" d="M2415.271,558.142h-12.125c-3.555,0-6.445-2.925-6.445-6.52v-20.82c0-0.34,0.284-0.627,0.625-0.627h3.131
				v21.777c0,1.503,1.206,2.729,2.689,2.729h11.497c0.341,0,0.628,0.285,0.628,0.624V558.142z M2397.326,530.469
				c-0.177,0-0.333,0.155-0.333,0.333v20.82c0,3.434,2.761,6.226,6.153,6.226h11.829v-2.543c0-0.176-0.154-0.332-0.332-0.332
				h-11.497c-1.644,0-2.982-1.354-2.982-3.021v-21.483H2397.326z"/>
		</g>
		<g>
			<path fill="#284EB7" d="M2425.216,536.293v6.999c0.37-0.442,1.032-0.738,1.808-0.738h12.123v2.692c0,0.256-0.22,0.479-0.48,0.479
				h-13.45v6.301c0,1.548,1.255,2.8,2.8,2.8h11.942c0.257,0,0.478,0.222,0.478,0.479v2.689h-12.42c-3.463,0-6.261-2.801-6.261-6.264
				v-15.144c0-3.464,2.798-6.265,6.261-6.265h12.42v2.689c0,0.258-0.221,0.479-0.478,0.479h-11.942
				C2426.471,533.49,2425.216,534.745,2425.216,536.293z"/>
			<path fill="#284EB7" d="M2440.581,558.142h-12.565c-3.534,0-6.409-2.876-6.409-6.411v-15.144c0-3.536,2.875-6.412,6.409-6.412
				h12.565v2.837c0,0.34-0.286,0.625-0.623,0.625h-11.942c-1.461,0-2.652,1.19-2.652,2.656v6.65c0.42-0.338,1.017-0.536,1.66-0.536
				h12.271v2.839c0,0.34-0.289,0.625-0.628,0.625h-13.303v6.155c0,1.463,1.191,2.654,2.652,2.654h11.942
				c0.337,0,0.623,0.285,0.623,0.624V558.142z M2428.016,530.469c-3.373,0-6.117,2.744-6.117,6.118v15.144
				c0,3.374,2.744,6.117,6.117,6.117h12.271v-2.543c0-0.176-0.155-0.332-0.329-0.332h-11.942c-1.622,0-2.946-1.323-2.946-2.946
				v-6.447h13.597c0.179,0,0.334-0.157,0.334-0.333v-2.544h-11.977c-0.703,0-1.337,0.257-1.694,0.684l-0.26,0.312v-7.404
				c0-1.626,1.324-2.949,2.946-2.949h11.942c0.174,0,0.329-0.156,0.329-0.332v-2.543H2428.016z"/>
		</g>
		<g>
			<path fill="#284EB7" d="M2448.279,557.517v-27.194h2.986c0.258,0,0.479,0.222,0.479,0.479v27.192h-2.985
				C2448.5,557.994,2448.279,557.772,2448.279,557.517z"/>
			<path fill="#284EB7" d="M2451.891,558.142h-3.131c-0.34,0-0.627-0.286-0.627-0.625v-27.342h3.133
				c0.339,0,0.625,0.287,0.625,0.627V558.142z M2448.428,530.469v27.048c0,0.178,0.153,0.331,0.332,0.331h2.84v-27.046
				c0-0.178-0.158-0.333-0.334-0.333H2448.428z"/>
		</g>
		<g>
			<path fill="#284EB7" d="M2463.902,544.729v12.788c0,0.256-0.222,0.478-0.479,0.478h-2.986v-25.535
				c0-1.179,0.958-2.137,2.14-2.137h11.568c3.465,0,6.265,2.174,6.265,5.933v3.573c0,3.243-2.322,5.013-5.012,5.714l5.895,12.452
				h-3.205c-0.257,0-0.553-0.222-0.663-0.442l-5.603-11.826h-4.714h-1.067c-1.033,0-1.808-0.297-2.066-0.997H2463.902z
				 M2474.146,542.554c1.549,0,2.8-1.252,2.8-2.801v-3.46c0-1.548-1.251-2.803-2.8-2.803h-9.545c-0.403,0-0.698,0.333-0.698,0.7
				v7.667c0,0.404,0.331,0.696,0.698,0.696H2474.146z"/>
			<path fill="#284EB7" d="M2481.525,558.142h-3.438c-0.33,0-0.667-0.271-0.795-0.522l-5.563-11.748h-5.689
				c-0.949,0-1.626-0.245-1.993-0.712v12.357c0,0.339-0.287,0.625-0.624,0.625h-3.132v-25.683c0-1.26,1.024-2.284,2.285-2.284
				h11.568c3.775,0,6.411,2.502,6.411,6.08v3.573c0,2.823-1.802,4.932-4.951,5.81L2481.525,558.142z M2463.756,544.582h0.322
				l0.035,0.097c0.275,0.743,1.2,0.9,1.928,0.9h5.875l0.041,0.082l5.601,11.829c0.084,0.166,0.33,0.357,0.53,0.357h2.975
				l-5.874-12.403l0.173-0.045c1.833-0.477,4.902-1.836,4.902-5.571v-3.573c0-3.462-2.458-5.786-6.118-5.786h-11.568
				c-1.101,0-1.991,0.892-1.991,1.99v25.389h2.838c0.175,0,0.332-0.153,0.332-0.331V544.582z M2474.146,542.702h-9.545
				c-0.463,0-0.845-0.381-0.845-0.845v-7.667c0-0.466,0.382-0.847,0.845-0.847h9.545c1.624,0,2.947,1.323,2.947,2.949v3.46
				C2477.093,541.381,2475.77,542.702,2474.146,542.702z M2464.601,533.637c-0.304,0-0.553,0.248-0.553,0.554v7.667
				c0,0.303,0.249,0.55,0.553,0.55h9.545c1.463,0,2.653-1.188,2.653-2.654v-3.46c0-1.466-1.19-2.656-2.653-2.656H2464.601z"/>
		</g>
		<g>
			<path fill="#284EB7" d="M2512.577,557.994h-3.025c-0.33,0-0.587-0.222-0.659-0.478l-2.471-7.112h-14.076l-2.469,7.112
				c-0.072,0.256-0.368,0.478-0.662,0.478h-3.023l8.992-25.607c0.439-1.218,1.584-2.064,2.911-2.064h4.385
				c0.183,0,0.366,0.11,0.443,0.257L2512.577,557.994z M2505.316,547.236l-4.791-13.746h-1.806c-0.294,0-0.552,0.184-0.661,0.479
				l-4.609,13.267H2505.316z"/>
			<path fill="#284EB7" d="M2512.783,558.142h-3.231c-0.374,0-0.704-0.241-0.802-0.586l-2.434-7.006h-13.865l-2.437,7.014
				c-0.091,0.322-0.442,0.578-0.8,0.578h-3.23l0.067-0.196l8.993-25.606c0.469-1.297,1.693-2.164,3.05-2.164h4.385
				c0.235,0,0.471,0.14,0.573,0.338L2512.783,558.142z M2492.241,550.257h14.285l2.503,7.213c0.057,0.191,0.251,0.378,0.522,0.378
				h2.817l-9.588-27.22c-0.041-0.081-0.179-0.159-0.302-0.159h-4.385c-1.23,0-2.347,0.791-2.773,1.968l-8.921,25.411h2.814
				c0.222,0,0.467-0.172,0.52-0.371L2492.241,550.257z M2505.522,547.383h-12.277l4.673-13.462c0.133-0.353,0.448-0.577,0.802-0.577
				h1.911L2505.522,547.383z M2493.658,547.09h11.453l-4.69-13.453h-1.701c-0.234,0-0.436,0.149-0.524,0.386L2493.658,547.09z"/>
		</g>
		<g>
			<path fill="#284EB7" d="M2536.851,555.857v-23.398c0-1.179,0.958-2.137,2.137-2.137h11.831c3.462,0,6.262,2.801,6.262,6.265
				v15.144c0,3.429-2.8,6.264-6.262,6.264h-11.831C2537.809,557.994,2536.851,557.036,2536.851,555.857z M2550.818,554.826
				c1.546,0,2.798-1.252,2.798-2.8v-15.733c0-1.548-1.252-2.803-2.798-2.803h-9.803c-0.406,0-0.701,0.296-0.701,0.7v19.936
				c0,0.367,0.295,0.7,0.701,0.7H2550.818z"/>
			<path fill="#284EB7" d="M2550.818,558.142h-11.831c-1.257,0-2.28-1.024-2.28-2.284v-23.398c0-1.26,1.023-2.284,2.28-2.284h11.831
				c3.532,0,6.41,2.876,6.41,6.412v15.144C2557.229,555.266,2554.351,558.142,2550.818,558.142z M2538.987,530.469
				c-1.097,0-1.989,0.892-1.989,1.99v23.398c0,1.099,0.893,1.99,1.989,1.99h11.831c3.372,0,6.115-2.743,6.115-6.117v-15.144
				c0-3.374-2.743-6.118-6.115-6.118H2538.987z M2550.818,554.973h-9.803c-0.469,0-0.848-0.38-0.848-0.847V534.19
				c0-0.483,0.365-0.847,0.848-0.847h9.803c1.623,0,2.944,1.323,2.944,2.949v15.733
				C2553.763,553.649,2552.441,554.973,2550.818,554.973z M2541.016,533.637c-0.328,0-0.553,0.228-0.553,0.554v19.936
				c0,0.306,0.247,0.555,0.553,0.555h9.803c1.462,0,2.654-1.191,2.654-2.654v-15.733c0-1.466-1.192-2.656-2.654-2.656H2541.016z"/>
		</g>
		<g>
			<path fill="#284EB7" d="M2568.611,536.293v6.999c0.368-0.442,1.031-0.738,1.805-0.738h12.123v2.692
				c0,0.256-0.22,0.479-0.478,0.479h-13.45v6.301c0,1.548,1.253,2.8,2.801,2.8h11.94c0.254,0,0.479,0.222,0.479,0.479v2.689h-12.419
				c-3.465,0-6.266-2.801-6.266-6.264v-15.144c0-3.464,2.801-6.265,6.266-6.265h12.419v2.689c0,0.258-0.225,0.479-0.479,0.479
				h-11.94C2569.864,533.49,2568.611,534.745,2568.611,536.293z"/>
			<path fill="#284EB7" d="M2583.975,558.142h-12.563c-3.534,0-6.414-2.876-6.414-6.411v-15.144c0-3.536,2.88-6.412,6.414-6.412
				h12.563v2.837c0,0.34-0.285,0.625-0.622,0.625h-11.94c-1.465,0-2.654,1.19-2.654,2.656v6.65c0.424-0.338,1.016-0.536,1.658-0.536
				h12.271v2.839c0,0.34-0.287,0.625-0.626,0.625h-13.304v6.155c0,1.463,1.189,2.654,2.654,2.654h11.94
				c0.337,0,0.622,0.285,0.622,0.624V558.142z M2571.412,530.469c-3.375,0-6.119,2.744-6.119,6.118v15.144
				c0,3.374,2.744,6.117,6.119,6.117h12.271v-2.543c0-0.176-0.156-0.332-0.33-0.332h-11.94c-1.624,0-2.945-1.323-2.945-2.946v-6.447
				h13.595c0.175,0,0.333-0.157,0.333-0.333v-2.544h-11.979c-0.704,0-1.334,0.257-1.692,0.684l-0.257,0.312v-7.404
				c0-1.626,1.321-2.949,2.945-2.949h11.94c0.174,0,0.33-0.156,0.33-0.332v-2.543H2571.412z"/>
		</g>
		<g>
			<path fill="#284EB7" d="M2622,554.826c1.547,0,2.726-1.252,2.726-2.8v-3.354c0-0.367-0.294-0.772-0.664-0.885l-14.148-4.716
				c-1.104-0.367-2.028-1.622-2.028-2.801v-4.386c0-3.464,2.803-5.563,6.266-5.563h13.116v2.689c0,0.258-0.181,0.479-0.478,0.479
				h-12.639c-1.545,0-2.838,0.995-2.838,2.543v3.574c0,0.405,0.295,0.811,0.664,0.923l14.148,4.678
				c1.107,0.369,1.916,1.659,1.916,2.838v3.943c0,3.464-2.617,6.005-6.041,6.005h-14.115v-2.689c0-0.294,0.221-0.479,0.479-0.479
				H2622z"/>
			<path fill="#284EB7" d="M2622,558.142h-14.261v-2.837c0-0.355,0.27-0.624,0.625-0.624H2622c1.447,0,2.582-1.166,2.582-2.654
				v-3.354c0-0.311-0.26-0.652-0.562-0.742l-14.154-4.72c-1.171-0.39-2.127-1.71-2.127-2.939v-4.386c0-3.36,2.639-5.71,6.411-5.71
				h13.263v2.837c0,0.356-0.268,0.625-0.624,0.625h-12.639c-1.56,0-2.689,1.008-2.689,2.396v3.574c0,0.339,0.249,0.69,0.559,0.779
				l14.152,4.684c1.13,0.378,2.015,1.684,2.015,2.976v3.943C2628.187,555.496,2625.528,558.142,2622,558.142z M2608.033,557.848
				H2622c3.36,0,5.895-2.518,5.895-5.858v-3.943c0-1.155-0.813-2.366-1.816-2.699l-14.146-4.678
				c-0.43-0.128-0.765-0.595-0.765-1.062v-3.574c0-1.558,1.253-2.689,2.983-2.689h12.639c0.229,0,0.334-0.17,0.334-0.332v-2.543
				h-12.973c-3.601,0-6.117,2.227-6.117,5.416v4.386c0,1.114,0.864,2.308,1.926,2.661l14.149,4.716
				c0.42,0.128,0.764,0.589,0.764,1.024v3.354c0,1.652-1.262,2.946-2.872,2.946h-13.636c-0.158,0-0.331,0.104-0.331,0.332V557.848z"
				/>
		</g>
		<g>
			<path fill="#284EB7" d="M2654.199,530.322v2.689c0,0.258-0.222,0.479-0.48,0.479h-7.883v24.026c0,0.256-0.186,0.478-0.479,0.478
				h-2.984V533.49h-8.255v-2.688c0-0.258,0.222-0.479,0.48-0.479H2654.199z"/>
			<path fill="#284EB7" d="M2645.356,558.142h-3.133v-24.505h-8.253v-2.835c0-0.34,0.285-0.627,0.627-0.627h19.749v2.837
				c0,0.34-0.287,0.625-0.628,0.625h-7.736v23.88C2645.982,557.873,2645.713,558.142,2645.356,558.142z M2642.516,557.848h2.841
				c0.229,0,0.333-0.172,0.333-0.331v-24.173h8.029c0.179,0,0.336-0.156,0.336-0.332v-2.543h-19.457
				c-0.179,0-0.332,0.155-0.332,0.333v2.542h8.25V557.848z"/>
		</g>
		<g>
			<path fill="#284EB7" d="M2683.085,557.994h-3.021c-0.331,0-0.59-0.222-0.664-0.478l-2.471-7.112h-14.072l-2.47,7.112
				c-0.075,0.256-0.372,0.478-0.663,0.478h-3.021l8.988-25.607c0.445-1.218,1.586-2.064,2.913-2.064h4.384
				c0.186,0,0.369,0.11,0.443,0.257L2683.085,557.994z M2675.828,547.236l-4.792-13.746h-1.806c-0.295,0-0.553,0.184-0.663,0.479
				l-4.604,13.267H2675.828z"/>
			<path fill="#284EB7" d="M2683.293,558.142h-3.229c-0.375,0-0.708-0.241-0.805-0.586l-2.431-7.006h-13.868l-2.437,7.014
				c-0.089,0.322-0.444,0.578-0.8,0.578h-3.229l0.066-0.196l8.993-25.606c0.472-1.297,1.695-2.164,3.05-2.164h4.384
				c0.238,0,0.474,0.14,0.576,0.338L2683.293,558.142z M2662.753,550.257h14.282l2.505,7.213c0.054,0.191,0.251,0.378,0.524,0.378
				h2.814l-9.586-27.22c-0.042-0.081-0.179-0.159-0.305-0.159h-4.384c-1.23,0-2.345,0.791-2.773,1.968l-8.922,25.411h2.815
				c0.221,0,0.465-0.172,0.52-0.371L2662.753,550.257z M2676.031,547.383h-12.277l4.674-13.462c0.133-0.353,0.446-0.577,0.803-0.577
				h1.908L2676.031,547.383z M2664.168,547.09h11.454l-4.692-13.453h-1.699c-0.236,0-0.439,0.149-0.525,0.386L2664.168,547.09z"/>
		</g>
		<g>
			<path fill="#284EB7" d="M2693.105,544.729v12.788c0,0.256-0.222,0.478-0.479,0.478h-2.983v-25.535
				c0-1.179,0.957-2.137,2.136-2.137h11.57c3.466,0,6.266,2.174,6.266,5.933v3.573c0,3.243-2.323,5.013-5.012,5.714l5.895,12.452
				h-3.206c-0.257,0-0.552-0.222-0.662-0.442l-5.603-11.826h-4.716h-1.066c-1.033,0-1.808-0.297-2.064-0.997H2693.105z
				 M2703.349,542.554c1.546,0,2.8-1.252,2.8-2.801v-3.46c0-1.548-1.254-2.803-2.8-2.803h-9.544c-0.407,0-0.699,0.333-0.699,0.7
				v7.667c0,0.404,0.331,0.696,0.699,0.696H2703.349z"/>
			<path fill="#284EB7" d="M2710.729,558.142h-3.438c-0.328,0-0.668-0.271-0.794-0.522l-5.563-11.748h-5.689
				c-0.949,0-1.625-0.245-1.993-0.712v12.357c0,0.339-0.286,0.625-0.625,0.625h-3.131v-25.683c0-1.26,1.025-2.284,2.283-2.284h11.57
				c3.776,0,6.412,2.502,6.412,6.08v3.573c0,2.823-1.804,4.932-4.952,5.81L2710.729,558.142z M2692.957,544.582h0.325l0.034,0.097
				c0.276,0.743,1.2,0.9,1.928,0.9h5.875l0.042,0.082l5.6,11.829c0.084,0.166,0.329,0.357,0.53,0.357h2.974l-5.872-12.403
				l0.173-0.045c1.831-0.477,4.903-1.836,4.903-5.571v-3.573c0-3.462-2.46-5.786-6.12-5.786h-11.57c-1.099,0-1.99,0.892-1.99,1.99
				v25.389h2.838c0.176,0,0.331-0.153,0.331-0.331V544.582z M2703.349,542.702h-9.544c-0.467,0-0.848-0.381-0.848-0.845v-7.667
				c0-0.466,0.381-0.847,0.848-0.847h9.544c1.624,0,2.948,1.323,2.948,2.949v3.46
				C2706.297,541.381,2704.973,542.702,2703.349,542.702z M2693.805,533.637c-0.306,0-0.554,0.248-0.554,0.554v7.667
				c0,0.303,0.248,0.55,0.554,0.55h9.544c1.464,0,2.653-1.188,2.653-2.654v-3.46c0-1.466-1.189-2.656-2.653-2.656H2693.805z"/>
		</g>
		<g>
			<path fill="#284EB7" d="M2735.66,530.322v2.689c0,0.258-0.222,0.479-0.479,0.479h-7.885v24.026c0,0.256-0.185,0.478-0.479,0.478
				h-2.986V533.49h-8.256v-2.688c0-0.258,0.226-0.479,0.48-0.479H2735.66z"/>
			<path fill="#284EB7" d="M2726.818,558.142h-3.135v-24.505h-8.252v-2.835c0-0.34,0.285-0.627,0.625-0.627h19.752v2.837
				c0,0.34-0.286,0.625-0.627,0.625h-7.738v23.88C2727.443,557.873,2727.174,558.142,2726.818,558.142z M2723.979,557.848h2.84
				c0.229,0,0.332-0.172,0.332-0.331v-24.173h8.031c0.179,0,0.333-0.156,0.333-0.332v-2.543h-19.458
				c-0.177,0-0.332,0.155-0.332,0.333v2.542h8.254V557.848z"/>
		</g>
		<g>
			<path fill="#284EB7" d="M2742.216,551.878v-21.556h2.985c0.257,0,0.478,0.222,0.478,0.479v21.371c0,1.548,1.253,2.8,2.8,2.8
				h8.329c1.549,0,2.8-1.252,2.8-2.8v-21.371c0-0.258,0.221-0.479,0.479-0.479h2.985v21.556c0,3.463-2.837,6.265-6.265,6.265h-8.329
				C2745.016,558.143,2742.216,555.341,2742.216,551.878z"/>
			<path fill="#284EB7" d="M2756.808,558.288h-8.329c-3.535,0-6.411-2.874-6.411-6.41v-21.703h3.134c0.34,0,0.625,0.287,0.625,0.627
				v21.371c0,1.464,1.189,2.653,2.652,2.653h8.329c1.463,0,2.653-1.189,2.653-2.653v-21.371c0-0.34,0.287-0.627,0.626-0.627h3.132
				v21.703C2763.219,555.414,2760.344,558.288,2756.808,558.288z M2742.361,530.469v21.409c0,3.375,2.744,6.118,6.117,6.118h8.329
				c3.374,0,6.119-2.743,6.119-6.118v-21.409h-2.84c-0.179,0-0.331,0.155-0.331,0.333v21.371c0,1.627-1.324,2.948-2.948,2.948
				h-8.329c-1.624,0-2.946-1.321-2.946-2.948v-21.371c0-0.178-0.154-0.333-0.331-0.333H2742.361z"/>
		</g>
		<g>
			<path fill="#284EB7" d="M2791.184,536.587v3.646c0,3.428-2.801,6.265-6.265,6.265h-8.07c-1.139,0-2.063-0.664-2.137-1.474v12.492
				c0,0.256-0.222,0.478-0.479,0.478h-2.984v-25.535c0-1.179,0.96-2.137,2.137-2.137h11.534
				C2788.383,530.322,2791.184,533.16,2791.184,536.587z M2787.72,536.293c0-1.548-1.253-2.803-2.801-2.803h-9.505
				c-0.406,0-0.702,0.333-0.702,0.7v8.438c0,0.369,0.333,0.701,0.702,0.701c0,0,0,0,0.034,0h9.471c1.548,0,2.801-1.254,2.801-2.8
				V536.293z"/>
			<path fill="#284EB7" d="M2774.232,558.142h-3.131v-25.683c0-1.26,1.024-2.284,2.283-2.284h11.534
				c3.535,0,6.413,2.876,6.413,6.412v3.646c0,3.535-2.878,6.412-6.413,6.412h-8.07c-0.845,0-1.594-0.351-1.991-0.875v11.746
				C2774.857,557.855,2774.574,558.142,2774.232,558.142z M2771.396,557.848h2.837c0.178,0,0.334-0.153,0.334-0.331v-12.492
				l0.291-0.016c0.068,0.755,0.943,1.345,1.991,1.345h8.07c3.374,0,6.118-2.746,6.118-6.12v-3.646c0-3.374-2.744-6.118-6.118-6.118
				h-11.534c-1.097,0-1.989,0.892-1.989,1.99V557.848z M2784.919,543.477h-9.505c-0.453,0-0.848-0.396-0.848-0.848v-8.438
				c0-0.466,0.38-0.847,0.848-0.847h9.505c1.626,0,2.946,1.323,2.946,2.949v4.237
				C2787.865,542.153,2786.545,543.477,2784.919,543.477z M2775.414,533.637c-0.305,0-0.557,0.248-0.557,0.554v8.438
				c0,0.291,0.265,0.556,0.557,0.556h9.505c1.464,0,2.654-1.192,2.654-2.654v-4.237c0-1.466-1.19-2.656-2.654-2.656H2775.414z"/>
		</g>
		<g>
			<path fill="#284EB7" d="M2811.632,554.826c1.546,0,2.726-1.252,2.726-2.8v-3.354c0-0.367-0.293-0.772-0.664-0.885l-14.147-4.716
				c-1.106-0.367-2.027-1.622-2.027-2.801v-4.386c0-3.464,2.8-5.563,6.264-5.563h13.116v2.689c0,0.258-0.184,0.479-0.478,0.479
				h-12.639c-1.548,0-2.837,0.995-2.837,2.543v3.574c0,0.405,0.296,0.811,0.662,0.923l14.152,4.678
				c1.104,0.369,1.915,1.659,1.915,2.838v3.943c0,3.464-2.617,6.005-6.043,6.005h-14.113v-2.689c0-0.294,0.221-0.479,0.479-0.479
				H2811.632z"/>
			<path fill="#284EB7" d="M2811.632,558.142h-14.26v-2.837c0-0.355,0.269-0.624,0.625-0.624h13.635
				c1.446,0,2.579-1.166,2.579-2.654v-3.354c0-0.311-0.255-0.652-0.559-0.742l-14.152-4.72c-1.176-0.39-2.128-1.71-2.128-2.939
				v-4.386c0-3.36,2.635-5.71,6.41-5.71h13.265v2.837c0,0.356-0.271,0.625-0.626,0.625h-12.639c-1.56,0-2.69,1.008-2.69,2.396v3.574
				c0,0.339,0.248,0.69,0.557,0.779l14.156,4.684c1.129,0.378,2.016,1.684,2.016,2.976v3.943
				C2817.82,555.496,2815.159,558.142,2811.632,558.142z M2797.664,557.848h13.968c3.36,0,5.895-2.518,5.895-5.858v-3.943
				c0-1.155-0.812-2.366-1.814-2.699l-14.148-4.678c-0.427-0.128-0.765-0.595-0.765-1.062v-3.574c0-1.558,1.253-2.689,2.983-2.689
				h12.639c0.228,0,0.332-0.17,0.332-0.332v-2.543h-12.971c-3.603,0-6.118,2.227-6.118,5.416v4.386c0,1.114,0.864,2.308,1.928,2.661
				l14.146,4.716c0.422,0.128,0.767,0.589,0.767,1.024v3.354c0,1.652-1.263,2.946-2.873,2.946h-13.635
				c-0.162,0-0.333,0.104-0.333,0.332V557.848z"/>
		</g>
	</g>
	<g>
		<path fill="#3376D2" d="M2504.42,489.426l-87.18,0.084c-22.502-0.175-42.345-18.922-42.345-41.613V280.909h21.295
			c1.683,0,3.08,1.4,3.08,3.079v87.979v77.049c0,9.248,7.289,16.531,19.112,16.531h85.951L2504.42,489.426z"/>
	</g>
	<g>
		<path fill="#3376D2" d="M2769.431,489.426l-87.181,0.084c-22.499-0.175-42.345-18.922-42.345-41.613V280.909h21.3
			c1.684,0,3.078,1.4,3.078,3.079v87.979v77.049c0,9.248,7.286,16.531,19.112,16.531h85.948L2769.431,489.426z"/>
	</g>
	<g>
		<g>
			<path fill="#284EB7" d="M3085,429h-47.442c-19.548,0-35.558-13.988-35.558-31.773v-15.188c0-17.74,15.955-32.469,35.503-32.469
				l95.146-0.139l0.063,22.917l-95.381-0.062c-6.6,0-11.331,2.928-11.331,8.583v15.187c0,5.694,4.958,11.945,11.558,11.945H3085V429
				z"/>
		</g>
	</g>
	<g>
		<g>
			<path fill="#3376D2" d="M3049,408h47.738c19.547,0,36.262,14.457,36.262,32.242v16.359c0,17.739-16.715,32.398-36.262,32.398
				H2941.15l0.036-22.74l155.619,0.079c6.605,0,11.194-2.91,11.194-8.567v-16.358c0-5.694-4.661-12.414-11.262-12.414H3049V408z"/>
		</g>
	</g>
	<g>
		<g>
			<path fill="#284EB7" d="M2308,429h-46.49c-19.547,0-36.51-13.988-36.51-31.773v-15.188c0-17.74,16.431-32.469,35.979-32.469
				l80.649-0.139l0.046,22.917l-81.428-0.062c-6.6,0-12.247,2.928-12.247,8.583v15.187c0,5.694,6.91,11.945,13.51,11.945H2308V429z"
				/>
		</g>
	</g>
	<g>
		<g>
			<path fill="#3376D2" d="M2275,408h45.69c19.547,0,35.31,14.457,35.31,32.242v16.359c0,17.739-15.763,32.398-35.31,32.398
				h-156.762l0.037-22.74l156.819,0.079c6.603,0,11.215-2.91,11.215-8.567v-16.358c0-5.694-4.708-12.414-11.31-12.414H2275V408z"/>
		</g>
	</g>
</g>
</svg>
